<?xml version="1.0" encoding="utf-8"?>
<!-- Generator: Adobe Illustrator 22.1.0, SVG Export Plug-In . SVG Version: 6.00 Build 0)  -->
<svg version="1.1" id="レイヤー_1" xmlns="http://www.w3.org/2000/svg" xmlns:xlink="http://www.w3.org/1999/xlink" x="0px"
	 y="0px" viewBox="0 0 154.086 110.457" enable-background="new 0 0 154.086 110.457" xml:space="preserve">
<g>
	<path fill="#FFFFFF" d="M10.722,31.274c-1.89,0-3.67-0.302-5.34-0.905c-1.671-0.603-2.914-1.313-3.73-2.13l1.828-3.036
		c0.78,0.634,1.851,1.204,3.21,1.71s2.63,0.759,3.813,0.759c3.389,0,5.084-1.317,5.084-3.95c0-0.561-0.049-1.021-0.146-1.381
		c-0.098-0.359-0.302-0.719-0.613-1.079c-0.311-0.36-0.759-0.686-1.344-0.979c-0.585-0.293-1.365-0.604-2.341-0.933
		c-0.256-0.098-0.668-0.235-1.234-0.412c-0.567-0.177-0.948-0.302-1.144-0.375c-1.634-0.536-2.938-1.112-3.913-1.728
		s-1.731-1.411-2.268-2.387c-0.537-0.975-0.805-2.158-0.805-3.548c0-1.548,0.408-2.871,1.225-3.969
		C3.821,5.835,4.9,5.028,6.241,4.51s2.871-0.777,4.591-0.777c1.561,0,2.926,0.137,4.096,0.412c1.171,0.274,2.091,0.61,2.762,1.006
		s1.329,0.912,1.976,1.545l-2.158,2.816c-0.744-0.719-1.655-1.262-2.734-1.627s-2.197-0.549-3.355-0.549
		c-1.524,0-2.765,0.284-3.722,0.851S6.26,9.603,6.26,10.737c0,0.756,0.101,1.353,0.302,1.792s0.597,0.845,1.188,1.216
		c0.592,0.372,1.497,0.765,2.716,1.18c1.548,0.5,2.371,0.768,2.469,0.805c2.694,0.914,4.554,1.954,5.578,3.118
		c1.024,1.164,1.536,2.807,1.536,4.928c0,1.28-0.253,2.414-0.759,3.402c-0.506,0.987-1.198,1.771-2.076,2.35
		s-1.862,1.015-2.953,1.308C13.169,31.128,11.99,31.274,10.722,31.274z"/>
	<path fill="#FFFFFF" d="M39.071,31.256c-1.39,0-2.729-0.183-4.015-0.549s-2.49-0.923-3.611-1.673
		c-1.122-0.75-2.101-1.658-2.936-2.725s-1.493-2.344-1.975-3.832c-0.482-1.487-0.723-3.103-0.723-4.846
		c0-2.133,0.354-4.087,1.061-5.861s1.661-3.24,2.862-4.398c1.2-1.158,2.578-2.054,4.133-2.688s3.191-0.951,4.91-0.951
		c3.438,0,6.34,0.945,8.705,2.834l-1.664,2.908c-2-1.427-4.23-2.14-6.693-2.14c-1.683,0-3.2,0.437-4.554,1.308
		c-1.354,0.872-2.414,2.088-3.183,3.648c-0.768,1.561-1.151,3.323-1.151,5.286c0,3.072,0.851,5.52,2.551,7.342
		c1.701,1.823,3.874,2.734,6.52,2.734c2.634,0,5.108-0.896,7.425-2.688l1.408,3.347C45.582,30.274,42.558,31.256,39.071,31.256z"/>
	<path fill="#FFFFFF" d="M55.003,30.854V4.226h9.053c1.108,0,2.097,0.058,2.962,0.174c0.866,0.116,1.707,0.333,2.524,0.649
		c0.816,0.317,1.49,0.738,2.021,1.262c0.53,0.524,0.957,1.219,1.28,2.085c0.322,0.866,0.484,1.877,0.484,3.036
		c0,1.561-0.43,2.905-1.289,4.033s-2.167,1.899-3.923,2.313c0.816,0.366,1.527,0.933,2.131,1.701S71.4,21.24,71.9,22.459
		l3.384,8.394H70.73l-3.018-7.918c-0.537-1.427-1.101-2.384-1.691-2.872c-0.592-0.487-1.54-0.731-2.844-0.731h-3.969v11.521H55.003z
		 M59.154,15.766h4.517c0.609,0,1.161-0.037,1.655-0.11s0.963-0.207,1.408-0.402c0.445-0.195,0.823-0.442,1.134-0.741
		c0.311-0.298,0.555-0.688,0.731-1.17c0.177-0.481,0.266-1.033,0.266-1.655c0-1.511-0.369-2.536-1.106-3.072
		c-0.738-0.536-1.96-0.805-3.667-0.805h-4.938V15.766z"/>
	<path fill="#FFFFFF" d="M93.411,31.274c-4.121,0-7.358-1.246-9.711-3.74c-2.354-2.493-3.53-5.855-3.53-10.086
		c0-2.707,0.521-5.09,1.563-7.15c1.043-2.06,2.572-3.669,4.591-4.828c2.018-1.158,4.398-1.737,7.142-1.737
		c2.646,0,4.959,0.576,6.94,1.728c1.98,1.152,3.495,2.762,4.544,4.828c1.049,2.067,1.573,4.453,1.573,7.16
		c0,4.231-1.161,7.593-3.484,10.086C100.717,30.028,97.507,31.274,93.411,31.274z M93.338,27.671c2.84,0,4.986-0.896,6.438-2.688
		c1.45-1.792,2.176-4.304,2.176-7.535c0-3.121-0.726-5.587-2.176-7.397c-1.451-1.811-3.573-2.716-6.364-2.716
		c-2.805,0-4.956,0.912-6.456,2.734s-2.249,4.282-2.249,7.379c0,3.231,0.728,5.743,2.185,7.535
		C88.348,26.775,90.497,27.671,93.338,27.671z"/>
	<path fill="#FFFFFF" d="M113.694,30.854V4.226h4.206v23.043h12.326v3.584H113.694z"/>
	<path fill="#FFFFFF" d="M136.32,30.854V4.226h4.206v23.043h12.326v3.584H136.32z"/>
</g>
<polyline fill="none" stroke="#FFFFFF" stroke-width="2.25" stroke-miterlimit="10" points="77.142,57.979 77.142,104.229 
	85.826,90.729 "/>
</svg>
