<?xml version="1.0" encoding="utf-8"?>
<!-- Generator: Adobe Illustrator 22.1.0, SVG Export Plug-In . SVG Version: 6.00 Build 0)  -->
<svg version="1.1" id="レイヤー_1" xmlns="http://www.w3.org/2000/svg" xmlns:xlink="http://www.w3.org/1999/xlink" x="0px"
	 y="0px" viewBox="0 0 1000 149" style="enable-background:new 0 0 1000 149;" xml:space="preserve">
<style type="text/css">
	.st0{fill:#FFFFFF;}
</style>
<g>
	<g>
		<path class="st0" d="M77.037,103.029c-0.525,0-1.367-0.391-2.322-1.203c-10.057-8.481-11.498-28.371-10.027-47.554
			c-2.014-0.32-3.982-0.469-5.891-0.469c-3.196,0-6.226,0.418-9.029,1.16C47.05,61.391,40.051,81.54,32.482,81.54
			c-3.048,0-4.766-3.928-4.058-8.966c0.972-6.917,6.517-15.928,19.47-19.738c7.67-18.099,18.634-41.413,24.589-41.413
			c1.709,0,1.709,2.784,1.301,5.684c-0.629,4.468-2.372,13.028-3.799,23.181c-0.568,4.041-1.086,8.337-1.464,12.725
			c2.378,0.73,4.761,1.716,7.115,3.001c0.451,0.246,0.615,0.581,0.575,0.862c-0.061,0.426-0.589,0.731-1.292,0.421
			c-2.219-0.968-4.41-1.709-6.56-2.261c-1.288,17.089-0.314,35.235,8.048,45.247c0.912,1.094,1.249,1.875,1.186,2.318
			c-0.039,0.282-0.242,0.426-0.561,0.426L77.037,103.029z M46.569,55.969c-10.963,4.11-15.231,11.803-16.001,17.286
			c-0.512,3.637,0.517,6.302,2.151,6.302C37.836,79.557,44.534,60.843,46.569,55.969z M64.866,52.091
			c0.346-3.931,0.806-7.814,1.33-11.542c0.895-6.37,1.978-12.288,3.003-17.228c0.282-1.36,0.499-2.555,0.64-3.558
			c0.314-2.231,0.246-3.503-0.332-3.503c-0.738,0-2.309,2.073-4.98,6.869c-3.952,7.09-9.122,18.611-13.534,28.944
			c2.208-0.436,4.506-0.668,6.86-0.668c2.295,0,4.646,0.221,7.017,0.689L64.866,52.091z"/>
		<path class="st0" d="M99.907,69.408c0.221-1.569,0.634-3.441,1.308-5.636c0.53-9.427,1.186-21.796,2.785-33.167
			c0.657-4.671,1.472-9.174,2.502-13.235c2.6-10.25,6.811-15.229,9.971-15.229c3.031,0,5.094,4.58,3.843,13.482
			c-0.176,1.256-0.42,2.598-0.734,4.025c-2.575,11.663-7.63,23.936-14.712,33.812c-0.125,1.621-0.247,3.195-0.365,4.68
			c2.572-4.002,6.083-8.058,8.724-8.058c0.414,0,0.806,0.1,1.17,0.315c0.69,0.406,0.95,1.177,0.813,2.156
			c-0.413,2.932-4.388,7.741-11.053,10.31c1.333,2.718,3.748,6.247,6.977,6.247c4.794,0,11.445-7.203,14.76-11.135
			c2.187-2.591,3.64-4.33,4.251-4.33c1.038,0-1.579,3.763-3.274,5.808c-3.833,4.627-10.844,12.189-16.295,12.189
			c-3.03,0-5.355-2.405-6.87-4.799c-0.62,5.554-1.363,9.133-2.505,9.133C100.253,75.975,99.267,73.965,99.907,69.408z
			 M105.133,50.035c5.606-8.438,10.095-20.407,12.187-30.168c0.384-1.795,0.675-3.425,0.881-4.896
			c1.038-7.382-0.027-10.759-1.826-10.759c-2.136,0-5.31,4.759-7.235,13.226c-0.643,2.823-1.194,6.039-1.675,9.465
			c-1.033,7.347-1.741,15.659-2.328,23.131H105.133z M105.773,60.021c2.819-0.651,8.321-6.581,7.283-7.72
			C111.963,51.101,106.505,58.196,105.773,60.021L105.773,60.021z"/>
		<path class="st0" d="M131.944,68.268c-3.214,0-5.194-2.809-4.43-8.249c0.167-1.187,0.959-6.111,2.493-6.638
			c0.222-0.077,0.417-0.113,0.587-0.113c1.12,0,1.166,1.546,0.951,3.078c-0.173,1.228-0.513,2.447-0.604,2.853
			c-0.143,0.639-0.252,1.229-0.329,1.772c-0.468,3.333,0.292,4.875,1.931,4.875c3.58,0,9.644-6.638,12.106-9.776
			c0.956-1.219,1.641-2.083,2.074-2.083c0.256,0,0.347,0.166,0.306,0.459c-0.073,0.52-0.563,1.438-1.297,2.544
			c-2.601,3.915-8.947,11.279-13.791,11.279L131.944,68.268z M132.352,47.158c-0.599,0-1.073-0.572-0.948-1.461
			c0.068-0.478,0.308-1.049,0.796-1.672c0.39-0.498,0.823-0.737,1.183-0.737c0.526,0,0.899,0.51,0.765,1.462
			c-0.242,1.717-1.135,2.407-1.794,2.407H132.352z"/>
		<path class="st0" d="M146.691,63.375c-0.995,0-1.594-0.44-1.561-1.833c0.027-1.102,0.695-8.017,0.695-8.017
			c0.039-1.578-0.416-1.694,0.027-3.1c0.199-0.639,0.818-1.286,1.597-1.286c1.41,0,1.387,2.507,1.241,4.099
			c-0.123,1.347-0.364,3.521-0.413,3.984c-0.182,1.754-0.179,2.544,0.1,2.544c0.341,0,1.091-1.173,2.415-3.204
			c1.204-1.847,2.212-2.494,3.061-2.494c0.997,0,1.773,0.892,2.384,1.782c1.412,2.054,2.772,3.397,4.726,3.397
			c1.963,0,4.526-1.355,8.343-4.708c0.845-0.736,1.385-1.025,1.674-1.025c0.213,0,0.291,0.155,0.256,0.404
			c-0.057,0.405-0.416,1.058-0.982,1.682c-1.116,1.231-2.386,2.36-3.718,3.289c-2.236,1.562-4.524,2.536-6.572,2.536
			c-1.773,0-3.366-0.73-4.591-2.438c-0.922-1.289-1.454-1.961-1.966-1.961c-0.459,0-0.901,0.542-1.593,1.662
			c-0.99,1.605-2.766,4.422-4.56,4.645c-0.201,0.025-0.39,0.039-0.567,0.039L146.691,63.375z"/>
		<path class="st0" d="M186.429,79.208c-0.697,0.65-3.162-0.371-3.973-4.655c-1.101-5.838-0.921-13.6,0.068-21.863
			c-2.247,3.52-6.578,9.655-10.531,9.655c-2.642,0-3.729-2.655-3.314-5.609c0.457-3.247,2.726-6.856,6.741-7.704
			c0.339-0.072,0.668-0.108,0.979-0.108c1.418,0,2.47,0.746,2.47,2.25c0,0.089-0.006,0.173-0.017,0.255
			c-0.111,0.788-0.733,1.23-1.295,1.23c-0.865,0-0.44-1.113-1.669-1.113c-2.268,0-3.902,2.983-4.24,5.387
			c-0.228,1.621,0.135,2.977,1.291,2.977c3.098,0,8.706-9.673,10.318-12.546c2.058-13.203,5.871-26.905,9.634-35.627
			c2.702-6.263,5.329-9.393,6.864-9.393c1.143,0,1.681,1.736,1.193,5.205c-0.187,1.331-0.525,2.92-1.039,4.762
			c-2.366,8.504-7.376,22.316-13.682,34.02c-1.555,9.982-2.116,19.495-0.667,26.627c0.759,3.753,1.943,5.246,0.869,6.248
			L186.429,79.208z M187.497,39.135c4.392-9.244,8.132-19.329,10.4-27.103c0.674-2.28,1.073-4.002,1.235-5.152
			c0.161-1.145,0.085-1.724-0.191-1.724c-0.529,0-1.802,2.144-3.562,6.526c-2.502,6.233-5.639,16.055-7.885,27.454L187.497,39.135z"
			/>
		<path class="st0" d="M217.249,80.304c-2.35,0-2.715-3.851-2.794-7.508c-0.097-4.607,0.479-10.71,1.39-17.188
			c0.581-4.127,2.358-14.123,4.131-22.802c-3.951,0.677-7.362,1.291-9.361,1.429c-0.194,0.013-0.384,0.02-0.569,0.02
			c-1.58,0-2.735-0.591-2.517-2.137c0.098-0.693,0.573-0.935,1.14-0.935c1.243,0,1.691,0.497,2.803,0.461
			c0.327-0.011,4.112-0.607,9.008-1.257c0.949-4.51,1.865-8.44,2.557-10.664c0.598-1.92,1.454-3.815,2.773-4.31
			c0.807-0.303,0.965,0.453,0.78,1.779c-0.15,1.064-0.522,2.495-0.957,4.041c-0.84,2.974-1.604,5.904-2.302,8.788
			c5.378-0.671,11.465-1.294,15.713-1.294c1.239,0,2.322,0.054,3.184,0.174c0.898,0.123,2.6,0.231,2.41,1.466
			c-0.101,0.646-0.631,0.823-1.233,0.823c-0.609,0-1.292-0.18-1.682-0.238c-1.135-0.169-2.415-0.244-3.795-0.244
			c-4.506,0-10.077,0.79-15.141,1.625c-1.676,7.254-2.924,14.198-3.848,20.774c-0.97,6.903-1.591,13.492-1.464,18.304
			c0.115,4.308,0.591,5.592,1.218,5.592c0.815,0,2.301-2.816,3.046-2.816c1.044,0-1.421,6.116-4.483,6.116H217.249z"/>
		<path class="st0" d="M241.451,61.452c-3.291,0-5.355-2.007-5.956-3.822c-0.187-0.565-0.134-0.853-0.865-0.292
			c-1.424,1.093-3.816,2.668-5.513,2.668c-0.446,0-0.845-0.109-1.165-0.363c-0.619-0.493-0.797-1.368-0.647-2.431
			c0.52-3.707,5.021-9.698,8.655-9.698c1.614,0,2.128,0.96,2.001,1.865c-0.141,1.004-1.071,1.94-2.167,1.422
			c-1.907-0.892-6.758,5.627-5.789,6.602c1.052,1.058,4.848-2.791,5.677-3.371c0.303-0.213,0.622-0.3,0.921-0.3
			c0.725,0,1.328,0.513,1.285,0.991c-0.027,0.296-0.155,0.566-0.26,0.852c-0.469,1.287,0.944,3.824,4.298,3.824
			c4.322,0,8.72-4.032,10.149-5.205c0.754-0.618,1.259-0.876,1.524-0.876c0.171,0,0.242,0.107,0.215,0.294
			c-0.046,0.328-0.391,0.901-1.025,1.576c-2.729,2.934-7.233,6.267-11.338,6.267L241.451,61.452z"/>
		<path class="st0" d="M253.954,73.129c-2.124,0.023-1.837-4.333-1.81-8.046c0.07-8.864,0.11-18.97,1.517-28.982
			c1.232-8.766,3.511-17.461,7.775-25.186c1.804-3.272,3.935-5.048,5.582-5.048c2.011,0,3.221,2.648,2.408,8.427
			c-1.575,11.213-9.053,30.07-13.916,37.947c-0.136,4.745-0.023,8.656,0.209,11.004c3.858-7.685,8.298-10.738,11.153-10.738
			c2.32,0,3.209,1.646,2.887,3.939c-0.481,3.423-3.659,8.285-8.801,11.267c-0.813,0.472-1.871,1.094-2.597,1.094
			c-0.351,0-0.625-0.146-0.756-0.527c-0.057-0.166-0.072-0.318-0.053-0.46c0.116-0.821,1.431-1.276,2.716-1.933
			c3.491-1.792,6.991-6.796,7.367-9.477c0.147-1.054-0.187-1.749-1.194-1.749c-1.825,0-5.411,2.887-8.62,9.693
			c-2.903,6.155-1.558,8.746-3.872,8.77L253.954,73.129z M255.665,48.528c4.749-9.185,10.432-26.663,11.651-35.336
			c0.482-3.434,0.178-5.141-0.647-5.141c-0.722,0-1.842,1.308-3.181,3.909c-3.351,6.512-5.402,15.18-6.592,23.648
			C256.266,40.087,255.878,44.509,255.665,48.528L255.665,48.528z"/>
		<path class="st0" d="M277.363,88.941c-0.719,0.851-2.774-0.954-3.462-6.506c-1.221-9.845-0.618-22.135,1.053-34.025
			c2.163-15.392,6.117-30.11,10.223-37.972c1.966-3.764,4.155-5.935,5.69-5.935c1.562,0,2.439,2.251,1.719,7.371
			c-1.426,10.151-8.194,28.599-15.257,40.522c-1.509,12.261-1.484,22.226-0.652,28.441c0.503,3.781,1.305,5.787,1.119,7.109
			c-0.054,0.378-0.188,0.701-0.435,0.993L277.363,88.941z M277.952,47.796c5.929-11.837,11.021-27.505,12.5-35.518
			c0.092-0.496,0.168-0.955,0.227-1.377c0.375-2.665,0.124-3.869-0.48-3.869c-0.686,0-1.828,1.55-3.028,4.27
			c-3.241,7.351-7.205,22.935-9.219,36.491V47.796z"/>
		<path class="st0" d="M294.705,64.294c-4.875,0-8.152-3.325-7.404-8.649c0.683-4.862,4.665-8.095,7.331-8.095
			c0.841,0,1.551,0.322,1.986,1.015c0.289,0.463,0.396,1.063,0.303,1.722c-0.279,1.981-2.357,4.491-6.663,5.378
			c-0.45,4.611,1.812,6.617,5.094,6.617c3.191,0,7.572-1.989,12.499-6.84c1.273-1.253,1.976-1.806,2.37-1.806
			c0.197,0,0.268,0.129,0.238,0.346c-0.071,0.501-0.683,1.475-1.516,2.419c-4.875,5.524-10.121,7.896-14.238,7.896L294.705,64.294z
			 M290.786,53.479c2.186-0.163,3.596-1.765,3.745-2.833c0.077-0.549-0.178-0.956-0.829-0.956c-1.067,0-2.303,1.747-2.916,3.791
			V53.479z"/>
		<path class="st0" d="M334.55,67.779c-4.722,0-6.397-4.537-5.749-9.149c0.904-6.43,6.593-12.658,10.566-12.658
			c1.673,0,2.74,1.223,2.359,3.93c-0.295,2.104-1.201,2.86-1.961,2.86c-0.783,0-1.412-0.802-1.06-1.76
			c0.141-0.381,0.285-0.868,0.349-1.32c0.099-0.702,0.002-1.319-0.608-1.319c-2.136,0-5.814,6.044-6.487,10.834
			c-0.445,3.163,0.41,5.676,3.439,5.676c5.062,0,11.172-6.488,14.617-9.914c0.39-0.389,1.875-1.946,2.349-1.591
			c0.138,0.103,0.177,0.265,0.151,0.459c-0.099,0.705-1.077,1.833-1.35,2.143c-4.022,4.552-10.32,11.805-16.615,11.805V67.779z"/>
		<path class="st0" d="M351.489,68.162c-2.055-0.095-1.354-2.632-1.236-4.491c0.13-2.04,0.482-10.299,0.662-11.577
			c0.322-2.291,1.3-3.799,2.673-4.474c0.32-0.157,0.585-0.227,0.804-0.227c0.831,0,0.963,1.006,0.696,2.006
			c-0.407,1.524-0.618,2.591-0.769,3.664c-0.124,0.887-0.208,1.778-0.325,2.936c-0.15,1.483-0.258,2.274-0.094,2.274
			c0.159,0,0.574-0.748,1.457-2.335c4.419-7.954,9.246-10.271,11.914-10.271c0.918,0,1.58,0.274,1.882,0.688
			c0.27,0.37,0.37,0.912,0.302,1.401c-0.086,0.609-0.433,1.132-1.037,1.132c-0.288,0-0.635-0.118-1.039-0.404
			c-1.841-1.299-9.998,4.574-13.742,16.047C352.98,66.545,352.914,68.226,351.489,68.162L351.489,68.162z"/>
		<path class="st0" d="M378.577,64.294c-4.875,0-8.152-3.325-7.404-8.649c0.683-4.862,4.665-8.095,7.331-8.095
			c0.841,0,1.551,0.322,1.986,1.015c0.289,0.463,0.396,1.063,0.303,1.722c-0.279,1.981-2.357,4.491-6.663,5.378
			c-0.45,4.611,1.812,6.617,5.094,6.617c3.191,0,7.572-1.989,12.499-6.84c1.273-1.253,1.976-1.806,2.37-1.806
			c0.197,0,0.268,0.129,0.238,0.346c-0.071,0.501-0.683,1.475-1.516,2.419c-4.875,5.524-10.121,7.896-14.238,7.896L378.577,64.294z
			 M374.659,53.479c2.186-0.163,3.596-1.765,3.745-2.833c0.077-0.549-0.178-0.956-0.829-0.956c-1.067,0-2.303,1.747-2.916,3.791
			V53.479z"/>
		<path class="st0" d="M417.82,80.308c-2.349,0-2.714-3.851-2.794-7.508c-0.098-4.604,0.479-10.703,1.388-17.176
			c0.353-2.514,0.757-5.085,1.191-7.646c-2.301,5.799-6.62,13.569-12.633,13.569c-2.285,0-4.139-1.241-4.734-3.917
			c-0.118-0.544-0.223-0.794-0.888-0.285c-1.424,1.094-3.815,2.669-5.512,2.669c-0.446,0-0.845-0.109-1.165-0.364
			c-0.619-0.492-0.797-1.367-0.647-2.43c0.522-3.707,5.022-9.697,8.656-9.697c1.612,0,2.127,0.959,1.999,1.865
			c-0.141,1.003-1.07,1.94-2.165,1.422c-1.908-0.892-6.759,5.628-5.79,6.602c1.052,1.058,4.848-2.791,5.677-3.372
			c0.303-0.213,0.622-0.299,0.921-0.299c0.725,0,1.328,0.513,1.284,0.991c-0.027,0.296-0.154,0.567-0.259,0.853
			c-0.454,1.244,0.936,3.908,3.333,3.908c7.578,0,13.375-19.111,14.826-26.673c-3.93,0.673-7.33,1.284-9.321,1.422
			c-0.194,0.013-0.385,0.02-0.569,0.02c-1.58,0-2.736-0.589-2.519-2.134c0.098-0.695,0.573-0.937,1.141-0.937
			c1.243,0,1.69,0.497,2.803,0.461c0.326-0.01,4.103-0.604,8.988-1.253c0.033-0.149,1.946-8.757,2.54-10.668
			c0.598-1.92,1.453-3.815,2.773-4.311c0.807-0.303,0.965,0.452,0.78,1.777c-0.114,0.809-0.356,1.83-0.657,2.952
			c-0.292,1.091-0.647,2.276-1.061,3.748c-0.505,1.813-1.032,3.872-1.565,6.136c5.393-0.674,11.509-1.302,15.77-1.302
			c1.239,0,2.32,0.054,3.182,0.174c0.898,0.123,2.6,0.231,2.41,1.466c-0.101,0.646-0.629,0.823-1.232,0.823
			c-0.609,0-1.292-0.18-1.683-0.238c-1.135-0.169-2.416-0.244-3.795-0.244c-4.518,0-10.107,0.795-15.181,1.632
			c-1.436,6.407-2.852,13.969-3.857,21.122c-0.956,6.8-1.541,13.231-1.416,17.95c0.114,4.308,0.59,5.592,1.219,5.592
			c0.813,0,2.299-2.816,3.046-2.816c1.045,0-1.42,6.116-4.483,6.116L417.82,80.308z"/>
		<path class="st0" d="M435.732,64.294c-4.875,0-8.152-3.325-7.404-8.649c0.683-4.862,4.665-8.095,7.331-8.095
			c0.841,0,1.551,0.322,1.986,1.015c0.289,0.463,0.396,1.063,0.303,1.722c-0.279,1.981-2.357,4.491-6.663,5.378
			c-0.45,4.611,1.812,6.617,5.094,6.617c3.191,0,7.572-1.989,12.499-6.84c1.273-1.253,1.976-1.806,2.37-1.806
			c0.198,0,0.268,0.129,0.238,0.346c-0.071,0.501-0.683,1.475-1.516,2.419c-4.875,5.524-10.121,7.896-14.238,7.896L435.732,64.294z
			 M431.814,53.479c2.186-0.163,3.595-1.765,3.745-2.833c0.077-0.549-0.178-0.956-0.829-0.956c-1.067,0-2.303,1.747-2.916,3.791
			V53.479z"/>
		<path class="st0" d="M451.026,77.692c-2.203,0-3.897-1.422-3.443-4.651c0.321-2.285,2.046-5.142,5.993-7.948
			c-1.801-3.299-4.114-6.862-3.465-11.484c0.722-5.131,5.617-8.23,8.941-8.23c2.175,0,3.528,1.399,3.287,3.119
			c-0.12,0.848-0.626,1.775-1.614,2.65c-0.586,0.519-1.044,0.756-1.327,0.756c-0.238,0-0.351-0.168-0.308-0.477
			c0.041-0.286,0.214-0.691,0.543-1.195c0.453-0.694,0.687-1.265,0.751-1.718c0.125-0.895-0.414-1.326-1.24-1.326
			c-1.822,0-5.041,2.101-5.583,5.962c-0.569,4.051,1.464,6.915,3.175,9.841c3.57-2.256,7.536-4.57,10.625-7.549
			c1.287-1.243,1.982-1.806,2.372-1.806c0.199,0,0.269,0.138,0.237,0.367c-0.072,0.514-0.665,1.486-1.518,2.396
			c-2.715,2.895-7.092,5.463-10.94,8.004c1.184,2.299,1.488,4.338,1.243,6.085C458.131,74.946,454.086,77.691,451.026,77.692
			L451.026,77.692z M451.645,76.035c1.514,0,3.356-1.389,3.753-4.21c0.196-1.394-0.036-3.13-1.035-5.211
			c-3.236,2.458-4.533,4.726-4.774,6.435C449.31,75.03,450.359,76.035,451.645,76.035L451.645,76.035z"/>
		<path class="st0" d="M502.361,61.452c-3.291,0-5.355-2.007-5.956-3.822c-0.187-0.565-0.134-0.853-0.865-0.292
			c-1.424,1.093-3.816,2.668-5.513,2.668c-0.446,0-0.845-0.109-1.165-0.363c-0.619-0.493-0.797-1.368-0.647-2.431
			c0.521-3.707,5.021-9.698,8.655-9.698c1.614,0,2.128,0.96,2.001,1.865c-0.141,1.004-1.071,1.94-2.167,1.422
			c-1.907-0.892-6.758,5.627-5.789,6.602c1.052,1.058,4.848-2.791,5.677-3.371c0.303-0.213,0.622-0.3,0.921-0.3
			c0.725,0,1.328,0.513,1.285,0.991c-0.027,0.296-0.155,0.566-0.26,0.852c-0.469,1.287,0.944,3.824,4.298,3.824
			c4.322,0,8.72-4.032,10.149-5.205c0.755-0.618,1.26-0.876,1.524-0.876c0.171,0,0.242,0.107,0.215,0.294
			c-0.046,0.328-0.391,0.901-1.026,1.576c-2.729,2.934-7.232,6.267-11.338,6.267L502.361,61.452z"/>
		<path class="st0" d="M536.035,69.3c-1.233,0-1.974-2.119-2.298-5.557c-0.431-4.567,0.072-14.862,1.51-25.094
			c1.892-13.468,5.404-26.83,10.538-26.889c3.171-0.036,3.906,3.93,3.098,9.674c-1.278,9.1-6.426,22.659-11.884,31.822
			c-0.078,1.138-0.331,4.485-0.364,7.031c-0.029,2.224,0.064,3.118,0.374,3.118c0.36,0,1.015-1.213,2.113-2.956
			c2.043-3.24,3.753-4.304,5.171-4.304c3.308,0,4.902,5.675,7.699,5.675c2.581,0,7.402-4.648,9.389-6.602
			c1.153-1.134,1.829-1.657,2.239-1.657c0.273,0,0.374,0.164,0.336,0.439c-0.073,0.52-0.645,1.438-1.493,2.399
			c-2.239,2.54-8.026,7.931-11.265,7.931c-1.685,0-2.945-1.352-4.095-2.732c-1.348-1.616-2.126-2.659-2.926-2.659
			c-0.818,0-1.656,1.091-3.148,3.774c-1.665,2.999-3.297,6.586-4.994,6.586L536.035,69.3z M537.302,49.38
			c4.761-9.219,8.423-20.944,9.467-28.371c0.615-4.376,0.32-7.26-1.193-7.26c-2.904,0-5.404,12.652-6.887,23.21
			C537.948,42.237,537.46,46.991,537.302,49.38L537.302,49.38z"/>
		<path class="st0" d="M575.198,61.452c-3.291,0-5.354-2.007-5.956-3.822c-0.187-0.565-0.133-0.853-0.865-0.292
			c-1.424,1.093-3.816,2.668-5.514,2.668c-0.446,0-0.844-0.109-1.165-0.363c-0.62-0.493-0.797-1.368-0.647-2.431
			c0.52-3.707,5.021-9.698,8.654-9.698c1.614,0,2.128,0.96,2,1.865c-0.14,1.004-1.071,1.94-2.166,1.422
			c-1.907-0.892-6.757,5.627-5.789,6.602c1.052,1.058,4.848-2.791,5.677-3.371c0.303-0.213,0.623-0.3,0.922-0.3
			c0.725,0,1.327,0.513,1.285,0.991c-0.027,0.296-0.156,0.566-0.261,0.852c-0.469,1.287,0.945,3.824,4.299,3.824
			c4.322,0,8.72-4.032,10.149-5.205c0.754-0.618,1.259-0.876,1.524-0.876c0.171,0,0.241,0.107,0.215,0.294
			c-0.047,0.328-0.391,0.901-1.026,1.576c-2.729,2.934-7.233,6.267-11.339,6.267L575.198,61.452z"/>
		<path class="st0" d="M606.054,101.747c-0.667,0-1.163-0.619-1.112-3.727c0.05-3.056,0.682-8.454,1.481-14.133
			c1.015-7.226,2.298-14.911,2.987-18.82l0.031-0.176c-0.329-0.264-0.653-0.538-0.962-0.86c-0.471-0.493-0.639-0.897-0.601-1.168
			c0.061-0.432,0.644-0.524,1.348-0.087c0.179,0.112,0.359,0.195,0.544,0.268c0.341-1.887,0.993-5.481,1.684-8.705
			c-5.03,7.253-12.424,6.826-13.974,7.033c-0.879,0.542-1.924,0.957-2.681,0.957c-0.663,0-1.136-0.318-1.019-1.144
			c0.132-0.941,1.211-1.984,3.665-1.984c1.912-1.547,2.809-3.165,2.988-4.439c0.2-1.419-0.491-2.413-1.662-2.413
			c-4.996,0-8.305,13.82-10.005,25.911c-0.826,5.88-1.271,11.351-1.344,14.626c-0.055,2.336,0.026,2.467,0.396,3.821
			c0.115,0.418,0.15,0.871,0.091,1.291c-0.121,0.862-0.636,1.581-1.668,1.557c-0.543-0.012-1.104-0.357-1.447-1.286
			c-1.284-3.481-1.643-24.666,0.604-40.654c0.693-4.926,1.632-9.358,2.869-12.628c0.273-0.722,1.294-1.319,2.093-1.319
			c0.741,0,1.29,0.513,0.874,1.915c-1.254,4.23-2.242,9.374-2.998,14.753c-0.857,6.093-1.415,12.488-1.718,18.192
			c-0.068,1.271-0.04,1.963,0.044,1.963c0.062,0,0.155-0.371,0.265-1.158c0.207-1.472,0.368-3.056,0.599-4.698
			c1.558-11.084,4.817-24.762,11.685-24.762c2.827,0,4.03,2.18,3.68,4.659c-0.235,1.669-1.171,3.473-2.791,4.837
			c6.198-0.468,10.734-4.936,12.989-10.883c0.548-1.456,1.199-2.393,2.08-2.393c1.003,0,1.183,0.632,1.044,1.619
			c-0.095,0.67-0.335,1.503-0.566,2.414c-1.3,5.14-2.226,8.842-3.313,14.037c0.328,0.105,0.659,0.188,0.99,0.251
			c1.477-4.189,3.755-10.018,8.057-10.018c2.241,0,3.148,1.818,2.836,4.04c-0.47,3.351-3.715,7.62-9.345,7.958
			c-3.612,9.991-5.502,19.83-6.366,25.97c-0.357,2.536-0.538,4.442-0.592,5.468c-0.034,0.618,0.019,1.445-0.085,2.18
			c-0.132,0.941-0.519,1.728-1.669,1.728L606.054,101.747z M610.811,71.919c0.484-1.485,1.074-3.496,1.779-5.639
			c-0.253-0.044-0.505-0.099-0.756-0.165C611.421,68.2,611.064,70.177,610.811,71.919L610.811,71.919z M615.493,64.465
			c3.809-0.601,5.921-3.714,6.207-5.747c0.145-1.035-0.183-1.79-1.002-1.79c-2.203,0-4.351,5.354-5.207,7.536L615.493,64.465z"/>
		<path class="st0" d="M629.025,108.148c-3.006,0-5.755-3.04-4.907-9.074c0.86-6.116,5.415-15.309,17.143-27.532
			c0.689-7.092,1.08-14.008,1.524-19.695c0.138-1.791,0.273-2.547,0.23-2.547c-0.048,0-0.32,0.957-1.066,2.469
			c-1.124,2.302-4.999,8.487-7.949,8.562c-3.006,0.084-3.043-4.302-3.177-7.448c-0.052-1.207-0.389-2.532-0.247-3.544
			c0.102-0.728,0.454-1.294,1.342-1.536c0.144-0.04,0.291-0.06,0.437-0.06c0.589,0,1.157,0.324,1.429,1.025
			c0.485,1.237-0.701,8.699,0.936,8.641c1.588-0.036,6.654-8.506,7.866-10.662c1.153-2.011,1.97-3.018,2.516-3.018
			c0.594,0,0.865,1.202,0.89,3.61c0.052,6.19-0.102,13.114-0.641,20.095c4.323-4.239,8.401-8.064,11.366-11.735
			c1.291-1.597,2.134-2.185,2.553-2.185c0.248,0,0.351,0.192,0.302,0.535c-0.074,0.532-0.513,1.427-1.344,2.535
			c-3.183,4.247-8.104,9.072-13.175,14.331c-0.169,1.749-0.41,3.885-0.742,6.24c-1.749,12.44-5.999,30.992-15.282,30.992
			L629.025,108.148z M629.216,106.309c6.449,0,9.719-16.82,11.086-26.549c0.244-1.733,0.428-3.24,0.558-4.388
			c-10.367,11.442-14.037,19.215-14.725,24.108c-0.675,4.801,1.522,6.83,3.083,6.83L629.216,106.309z"/>
		<path class="st0" d="M680.251,65.744c-2.776,0-1.737-12.108-0.894-16.417c0.396-2.027,2.17-3.351,2.961-3.351
			c0.754,0,0.774,0.637,0.677,1.329c-0.078,0.552-0.342,2.079-0.647,4.255c-0.214,1.523-0.449,3.365-0.654,5.414
			c-0.211,2.12-0.239,3.14,0.035,3.14c0.286,0,0.901-1.11,1.98-3.241c1.027-2.028,2.993-5.637,5.181-5.637
			c2.522,0,2.073,4.398,1.931,6.493c-0.086,1.259-0.086,2.105,0.287,2.105c0.389,0,1.186-0.926,2.717-3.274
			c1.247-1.914,2.289-2.501,3.164-2.501c2.386,0,2.858,5.228,6.424,5.228c1.739,0,4.021-1.117,6.036-2.578
			c2.428-1.761,3.48-3.272,4.473-3.272c0.963,0-0.368,2.086-3.786,4.666c-2.547,1.923-5.209,3.266-7.52,3.266
			c-2.388,0-3.538-1.347-4.327-2.555c-0.643-0.985-1.051-1.862-1.652-1.862c-0.508,0-1.153,0.626-2.193,2.343
			c-1.786,2.946-3.174,4.039-4.152,4.039c-3.176,0-0.587-8.308-2.247-8.308c-1.782,0-5.48,10.713-7.795,10.713L680.251,65.744z"/>
		<path class="st0" d="M715.45,68.268c-3.214,0-5.194-2.809-4.43-8.249c0.168-1.187,0.96-6.111,2.493-6.638
			c0.222-0.077,0.418-0.113,0.587-0.113c1.12,0,1.167,1.546,0.952,3.078c-0.173,1.228-0.513,2.447-0.604,2.853
			c-0.143,0.639-0.252,1.229-0.329,1.772c-0.468,3.333,0.292,4.875,1.931,4.875c3.579,0,9.644-6.638,12.107-9.776
			c0.956-1.219,1.64-2.083,2.073-2.083c0.255,0,0.347,0.166,0.307,0.459c-0.073,0.52-0.564,1.438-1.298,2.544
			c-2.601,3.915-8.946,11.279-13.791,11.279L715.45,68.268z M715.859,47.158c-0.599,0-1.073-0.572-0.948-1.461
			c0.068-0.478,0.308-1.049,0.796-1.672c0.391-0.498,0.822-0.737,1.183-0.737c0.527,0,0.899,0.51,0.766,1.462
			c-0.242,1.717-1.136,2.407-1.794,2.407H715.859z"/>
		<path class="st0" d="M730.198,63.375c-0.995,0-1.594-0.44-1.562-1.833c0.027-1.102,0.695-8.017,0.695-8.017
			c0.04-1.578-0.416-1.694,0.027-3.1c0.199-0.639,0.818-1.286,1.598-1.286c1.41,0,1.386,2.507,1.241,4.099
			c-0.124,1.347-0.364,3.521-0.413,3.984c-0.182,1.754-0.178,2.544,0.1,2.544c0.34,0,1.091-1.173,2.415-3.204
			c1.203-1.847,2.211-2.494,3.061-2.494c0.997,0,1.773,0.892,2.384,1.782c1.411,2.054,2.772,3.397,4.725,3.397
			c1.964,0,4.526-1.355,8.344-4.708c0.845-0.736,1.385-1.025,1.675-1.025c0.212,0,0.29,0.155,0.255,0.404
			c-0.057,0.405-0.416,1.058-0.982,1.682c-1.116,1.231-2.386,2.36-3.717,3.289c-2.237,1.562-4.524,2.536-6.572,2.536
			c-1.772,0-3.365-0.73-4.591-2.438c-0.923-1.289-1.455-1.961-1.966-1.961c-0.459,0-0.9,0.542-1.593,1.662
			c-0.989,1.605-2.766,4.422-4.56,4.645c-0.201,0.025-0.391,0.039-0.567,0.039L730.198,63.375z"/>
		<path class="st0" d="M769.936,79.208c-0.697,0.65-3.162-0.371-3.973-4.655c-1.101-5.838-0.921-13.6,0.068-21.863
			c-2.247,3.52-6.578,9.655-10.532,9.655c-2.641,0-3.728-2.655-3.314-5.609c0.457-3.247,2.727-6.856,6.742-7.704
			c0.339-0.072,0.667-0.108,0.979-0.108c1.418,0,2.47,0.746,2.47,2.25c0,0.089-0.006,0.173-0.017,0.255
			c-0.112,0.788-0.733,1.23-1.295,1.23c-0.865,0-0.44-1.113-1.67-1.113c-2.268,0-3.902,2.983-4.24,5.387
			c-0.228,1.621,0.134,2.977,1.291,2.977c3.097,0,8.706-9.673,10.317-12.546c2.058-13.203,5.871-26.905,9.634-35.627
			c2.702-6.263,5.329-9.393,6.863-9.393c1.143,0,1.681,1.736,1.193,5.205c-0.187,1.331-0.525,2.92-1.038,4.762
			c-2.366,8.504-7.376,22.316-13.682,34.02c-1.555,9.982-2.116,19.495-0.666,26.627c0.758,3.753,1.943,5.246,0.868,6.248
			L769.936,79.208z M771.005,39.135c4.392-9.244,8.132-19.329,10.399-27.103c0.674-2.28,1.074-4.002,1.235-5.152
			c0.16-1.145,0.084-1.724-0.191-1.724c-0.53,0-1.802,2.144-3.562,6.526c-2.503,6.233-5.639,16.055-7.885,27.454L771.005,39.135z"/>
		<path class="st0" d="M812.76,61.452c-3.291,0-5.354-2.007-5.956-3.822c-0.187-0.565-0.133-0.853-0.865-0.292
			c-1.424,1.093-3.816,2.668-5.514,2.668c-0.446,0-0.844-0.109-1.165-0.363c-0.62-0.493-0.797-1.368-0.647-2.431
			c0.52-3.707,5.021-9.698,8.654-9.698c1.614,0,2.128,0.96,2,1.865c-0.14,1.004-1.071,1.94-2.166,1.422
			c-1.907-0.892-6.757,5.627-5.789,6.602c1.052,1.058,4.848-2.791,5.677-3.371c0.303-0.213,0.623-0.3,0.922-0.3
			c0.725,0,1.327,0.513,1.285,0.991c-0.027,0.296-0.156,0.566-0.261,0.852c-0.469,1.287,0.945,3.824,4.299,3.824
			c4.322,0,8.72-4.032,10.149-5.205c0.754-0.618,1.259-0.876,1.524-0.876c0.171,0,0.241,0.107,0.215,0.294
			c-0.047,0.328-0.391,0.901-1.026,1.576c-2.729,2.934-7.233,6.267-11.339,6.267L812.76,61.452z"/>
		<path class="st0" d="M824.525,63.375c-0.995,0-1.594-0.44-1.562-1.833c0.027-1.102,0.695-8.017,0.695-8.017
			c0.04-1.578-0.416-1.694,0.027-3.1c0.199-0.639,0.818-1.286,1.598-1.286c1.41,0,1.386,2.507,1.241,4.099
			c-0.124,1.347-0.364,3.521-0.413,3.984c-0.182,1.754-0.178,2.544,0.1,2.544c0.34,0,1.091-1.173,2.415-3.204
			c1.203-1.847,2.211-2.494,3.061-2.494c0.997,0,1.773,0.892,2.384,1.782c1.411,2.054,2.772,3.397,4.725,3.397
			c1.964,0,4.526-1.355,8.344-4.708c0.845-0.736,1.385-1.025,1.675-1.025c0.212,0,0.29,0.155,0.255,0.404
			c-0.057,0.405-0.416,1.058-0.982,1.682c-1.116,1.231-2.386,2.36-3.717,3.289c-2.237,1.562-4.524,2.536-6.572,2.536
			c-1.772,0-3.365-0.73-4.591-2.438c-0.923-1.289-1.455-1.961-1.966-1.961c-0.459,0-0.9,0.542-1.593,1.662
			c-0.989,1.605-2.766,4.422-4.56,4.645c-0.201,0.025-0.39,0.039-0.567,0.039L824.525,63.375z"/>
		<path class="st0" d="M864.263,79.208c-0.697,0.65-3.162-0.371-3.973-4.655c-1.101-5.838-0.921-13.6,0.068-21.863
			c-2.247,3.52-6.578,9.655-10.532,9.655c-2.641,0-3.728-2.655-3.314-5.609c0.457-3.247,2.727-6.856,6.742-7.704
			c0.339-0.072,0.667-0.108,0.979-0.108c1.418,0,2.47,0.746,2.47,2.25c0,0.089-0.006,0.173-0.017,0.255
			c-0.112,0.788-0.733,1.23-1.295,1.23c-0.865,0-0.44-1.113-1.67-1.113c-2.268,0-3.902,2.983-4.24,5.387
			c-0.228,1.621,0.134,2.977,1.291,2.977c3.097,0,8.706-9.673,10.317-12.546c2.058-13.203,5.871-26.905,9.634-35.627
			c2.702-6.263,5.329-9.393,6.863-9.393c1.143,0,1.681,1.736,1.193,5.205c-0.187,1.331-0.525,2.92-1.038,4.762
			c-2.366,8.504-7.376,22.316-13.682,34.02c-1.555,9.982-2.116,19.495-0.666,26.627c0.758,3.753,1.943,5.246,0.868,6.248
			L864.263,79.208z M865.332,39.135c4.392-9.244,8.132-19.329,10.399-27.103c0.674-2.28,1.074-4.002,1.235-5.152
			c0.16-1.145,0.085-1.724-0.19-1.724c-0.53,0-1.802,2.144-3.562,6.526c-2.502,6.233-5.639,16.055-7.885,27.454L865.332,39.135z"/>
		<path class="st0" d="M896.997,88.941c-0.719,0.851-2.774-0.954-3.462-6.506c-1.221-9.845-0.618-22.135,1.053-34.025
			c2.163-15.392,6.116-30.11,10.223-37.972c1.966-3.764,4.155-5.935,5.69-5.935c1.563,0,2.439,2.251,1.72,7.371
			c-1.427,10.151-8.195,28.599-15.257,40.522c-1.509,12.261-1.484,22.226-0.652,28.441c0.503,3.781,1.305,5.787,1.119,7.109
			C897.377,88.325,897.243,88.648,896.997,88.941L896.997,88.941z M897.587,47.796c5.929-11.837,11.022-27.505,12.5-35.518
			c0.092-0.496,0.167-0.955,0.226-1.377c0.375-2.665,0.125-3.869-0.48-3.869c-0.685,0-1.828,1.55-3.027,4.27
			c-3.241,7.351-7.205,22.935-9.219,36.491V47.796z"/>
		<path class="st0" d="M910.611,68.268c-3.215,0-5.195-2.809-4.43-8.249c0.168-1.187,0.96-6.111,2.493-6.638
			c0.222-0.077,0.418-0.113,0.587-0.113c1.12,0,1.167,1.546,0.952,3.078c-0.173,1.228-0.513,2.447-0.604,2.853
			c-0.143,0.639-0.252,1.229-0.329,1.772c-0.468,3.333,0.292,4.875,1.931,4.875c3.579,0,9.644-6.638,12.107-9.776
			c0.956-1.219,1.64-2.083,2.073-2.083c0.255,0,0.347,0.166,0.307,0.459c-0.073,0.52-0.564,1.438-1.298,2.544
			c-2.601,3.915-8.946,11.279-13.791,11.279L910.611,68.268z M911.019,47.158c-0.599,0-1.073-0.572-0.948-1.461
			c0.068-0.478,0.308-1.049,0.796-1.672c0.391-0.498,0.822-0.737,1.183-0.737c0.527,0,0.899,0.51,0.766,1.462
			c-0.242,1.717-1.136,2.407-1.794,2.407H911.019z"/>
		<path class="st0" d="M923.928,98.309c-5.97,0-1.658-29.874,0.312-43.794c-0.513-0.374-0.978-0.63-1.465-1.143
			c-0.289-0.305-0.432-0.711-0.379-1.085c0.05-0.352,0.273-0.676,0.711-0.86c0.253-0.106,0.855-0.267,1.65-0.454
			c1.531-10.231,3.295-19.537,4.499-24.229c0.532-2.075,2.462-7.952,4.161-7.952c0.802,0,0.898,1.114,0.697,2.543
			c-0.306,2.173-1.296,5.078-1.536,5.905c-1.5,5.169-3.25,13.809-4.801,23.095c2.775-0.539,5.99-1.051,7.413-1.051
			c1.284,0,1.817,0.266,1.772,0.589c-0.042,0.301-0.585,0.65-1.49,0.882c-4.298,1.098-6.752,1.584-8.079,1.897
			c-0.111,0.689-0.221,1.378-0.329,2.069c5.01,6.863,5.663,17.348,4.403,26.314c-1.334,9.488-4.81,17.277-7.536,17.277
			L923.928,98.309z M924.19,95.677c1.426,0,3.901-6.816,5.06-15.066c1.135-8.071,1.01-17.516-2.59-23.294
			c-0.103,0.681-0.398,2.638-0.777,5.331C924.38,73.352,921.552,95.677,924.19,95.677L924.19,95.677z"/>
		<path class="st0" d="M947.214,64.294c-4.874,0-8.151-3.325-7.403-8.649c0.683-4.862,4.665-8.095,7.332-8.095
			c0.841,0,1.551,0.322,1.985,1.015c0.289,0.463,0.396,1.063,0.303,1.722c-0.279,1.981-2.357,4.491-6.663,5.378
			c-0.45,4.611,1.812,6.617,5.094,6.617c3.191,0,7.572-1.989,12.499-6.84c1.273-1.253,1.976-1.806,2.37-1.806
			c0.197,0,0.268,0.129,0.237,0.346c-0.07,0.501-0.682,1.475-1.516,2.419c-4.874,5.524-10.121,7.896-14.237,7.896L947.214,64.294z
			 M943.296,53.479c2.186-0.163,3.595-1.765,3.745-2.833c0.077-0.549-0.177-0.956-0.83-0.956c-1.066,0-2.302,1.747-2.915,3.791
			V53.479z"/>
		<path class="st0" d="M967.889,65.129c-1.014,0-1.589-0.77-1.442-1.815c0.049-0.349,0.177-0.713,0.391-1.061
			c0.513-0.833,1.462-1.408,2.227-1.408c1.126,0,1.548,1.094,1.411,2.066C970.321,64.014,969.424,65.128,967.889,65.129
			L967.889,65.129z"/>
	</g>
</g>
<g>
	<g>
		<path class="st0" d="M506.535,143.974c0.299-0.031,0.485-0.083,0.556-0.153c0.071-0.071,0.107-0.162,0.107-0.272v-8.856h-4.073
			c-0.127,0-0.222,0.044-0.284,0.131c-0.063,0.087-0.111,0.265-0.143,0.533h-0.284v-4.216h0.284c0.032,0.27,0.079,0.446,0.143,0.533
			c0.063,0.087,0.158,0.131,0.284,0.131h11.698c0.126,0,0.221-0.044,0.284-0.131c0.063-0.087,0.11-0.265,0.143-0.533h0.284v4.216
			h-0.284c-0.032-0.269-0.08-0.446-0.143-0.533c-0.063-0.087-0.158-0.131-0.284-0.131h-4.073v8.856c0,0.111,0.036,0.202,0.107,0.272
			c0.071,0.07,0.257,0.122,0.557,0.153v0.284h-4.878L506.535,143.974L506.535,143.974z"/>
		<path class="st0" d="M522.139,143.739c0,0.079,0.028,0.139,0.083,0.178c0.056,0.039,0.17,0.059,0.343,0.059v0.284h-4.191v-0.284
			c0.174-0.031,0.299-0.083,0.378-0.153c0.079-0.071,0.158-0.202,0.237-0.391c0.032-0.079,0.111-0.292,0.237-0.64
			c0.126-0.347,0.291-0.786,0.498-1.314c0.205-0.529,0.434-1.117,0.687-1.765c0.252-0.647,0.505-1.307,0.758-1.977
			c0.253-0.671,0.501-1.326,0.747-1.965c0.245-0.64,0.461-1.212,0.651-1.718c0.19-0.505,0.343-0.915,0.461-1.231
			c0.118-0.315,0.178-0.481,0.178-0.497c0-0.079-0.052-0.134-0.154-0.166c-0.103-0.031-0.21-0.056-0.319-0.071v-0.283h6.18v0.283
			c-0.126,0.016-0.229,0.04-0.307,0.071c-0.08,0.032-0.119,0.111-0.119,0.237c0,0.032,0.075,0.237,0.225,0.616
			c0.15,0.378,0.343,0.872,0.581,1.479c0.237,0.608,0.509,1.295,0.816,2.059c0.308,0.767,0.628,1.548,0.959,2.346
			s0.651,1.574,0.959,2.332c0.307,0.759,0.588,1.436,0.84,2.037c0.126,0.283,0.233,0.474,0.319,0.568
			c0.087,0.094,0.202,0.142,0.343,0.142v0.284h-4.665v-0.284c0.299-0.015,0.45-0.11,0.45-0.283c0-0.016-0.04-0.122-0.119-0.319
			c-0.079-0.197-0.166-0.418-0.26-0.663s-0.186-0.478-0.273-0.699c-0.087-0.221-0.139-0.37-0.154-0.449h-5.612
			c-0.158,0.426-0.284,0.773-0.378,1.041c-0.095,0.27-0.17,0.482-0.226,0.64c-0.056,0.158-0.095,0.272-0.119,0.344
			C522.151,143.656,522.139,143.707,522.139,143.739z M527.893,139.665l-2.297-5.635l-2.107,5.635H527.893z"/>
		<path class="st0" d="M538.17,132.514c0-0.11-0.036-0.201-0.107-0.271c-0.071-0.071-0.257-0.122-0.557-0.154v-0.283h9.022
			c0.647,0,1.239,0.063,1.776,0.189c0.537,0.127,1.002,0.319,1.397,0.58c0.394,0.261,0.702,0.601,0.923,1.019
			c0.222,0.418,0.332,0.919,0.332,1.503c0,0.711-0.214,1.283-0.64,1.718c-0.426,0.434-0.971,0.723-1.634,0.863v0.048
			c0.805,0.222,1.464,0.561,1.977,1.019c0.513,0.458,0.77,1.129,0.77,2.013c0,0.473-0.091,0.923-0.271,1.349
			c-0.182,0.427-0.466,0.798-0.852,1.113c-0.387,0.315-0.884,0.568-1.492,0.758c-0.608,0.19-1.331,0.284-2.167,0.284h-9.141v-0.284
			c0.299-0.031,0.485-0.083,0.557-0.153c0.071-0.071,0.107-0.162,0.107-0.272V132.514z M544.942,136.492
			c0.505,0,0.923-0.012,1.255-0.036c0.331-0.023,0.592-0.074,0.782-0.154c0.19-0.078,0.323-0.189,0.402-0.331
			c0.079-0.142,0.119-0.331,0.119-0.568s-0.04-0.426-0.119-0.568c-0.079-0.142-0.213-0.253-0.402-0.331
			c-0.19-0.079-0.45-0.131-0.782-0.154c-0.332-0.023-0.75-0.035-1.255-0.035h-3.221v2.179h3.221V136.492z M545.748,141.75
			c0.852,0,1.452-0.106,1.8-0.319c0.347-0.214,0.521-0.58,0.521-1.102c0-0.52-0.174-0.888-0.521-1.101
			c-0.347-0.214-0.947-0.319-1.8-0.319h-4.026v2.842L545.748,141.75L545.748,141.75z"/>
		<path class="st0" d="M568.244,141.37c0.126,0,0.221-0.043,0.284-0.13c0.063-0.087,0.11-0.264,0.143-0.533h0.284v4.096h-0.284
			c-0.032-0.254-0.08-0.406-0.143-0.462s-0.158-0.083-0.284-0.083h-12.361v-0.284c0.299-0.031,0.485-0.083,0.556-0.153
			c0.071-0.071,0.107-0.162,0.107-0.272v-11.035c0-0.11-0.036-0.201-0.107-0.271c-0.071-0.071-0.257-0.122-0.556-0.154v-0.283h4.878
			v0.283c-0.299,0.032-0.485,0.083-0.556,0.154c-0.071,0.071-0.107,0.162-0.107,0.271v8.856L568.244,141.37L568.244,141.37z"/>
		<path class="st0" d="M573.12,143.974c0.299-0.031,0.485-0.083,0.557-0.153c0.071-0.071,0.106-0.162,0.106-0.272v-11.035
			c0-0.11-0.035-0.201-0.106-0.271c-0.071-0.071-0.257-0.122-0.557-0.154v-0.283h4.878v0.283c-0.3,0.032-0.485,0.083-0.557,0.154
			c-0.072,0.071-0.106,0.162-0.106,0.271v11.035c0,0.111,0.035,0.202,0.106,0.272c0.071,0.07,0.257,0.122,0.557,0.153v0.284h-4.878
			V143.974z"/>
		<path class="st0" d="M592.585,139.713c-0.032-0.158-0.099-0.288-0.202-0.391c-0.103-0.103-0.273-0.154-0.509-0.154h-4.405v2.202
			h7.601c0.126,0,0.222-0.043,0.284-0.13c0.063-0.087,0.11-0.28,0.142-0.581h0.284v4.05h-0.284
			c-0.032-0.206-0.079-0.332-0.142-0.379c-0.063-0.048-0.159-0.071-0.284-0.071h-11.816v-0.284c0.299-0.031,0.485-0.083,0.556-0.153
			c0.071-0.071,0.107-0.162,0.107-0.272v-11.035c0-0.11-0.036-0.201-0.107-0.271c-0.071-0.071-0.257-0.122-0.556-0.154v-0.283
			h11.816c0.126,0,0.222-0.044,0.284-0.131c0.063-0.087,0.11-0.265,0.142-0.533h0.284v4.12h-0.284
			c-0.032-0.268-0.079-0.445-0.142-0.532c-0.063-0.087-0.159-0.131-0.284-0.131h-7.601v1.966h4.405c0.237,0,0.406-0.052,0.509-0.154
			c0.103-0.103,0.17-0.233,0.202-0.391h0.284v3.694h-0.284V139.713z"/>
		<path class="st0" d="M604.449,143.549c0,0.111,0.036,0.202,0.107,0.272c0.071,0.07,0.257,0.122,0.556,0.153v0.284h-4.878v-0.284
			c0.299-0.031,0.485-0.083,0.556-0.153c0.071-0.071,0.107-0.162,0.107-0.272v-11.035c0-0.11-0.036-0.201-0.107-0.271
			c-0.071-0.071-0.257-0.122-0.556-0.154v-0.283h8.667c1.753,0,3.023,0.319,3.813,0.958c0.79,0.64,1.184,1.631,1.184,2.972
			c0,1.09-0.319,1.941-0.958,2.557c-0.64,0.616-1.449,1.058-2.427,1.326l2.795,3.931c0.189,0.284,0.417,0.426,0.687,0.426v0.284
			h-4.926v-0.284c0.347-0.015,0.52-0.157,0.52-0.426c0-0.031-0.063-0.143-0.189-0.331c-0.127-0.189-0.284-0.418-0.474-0.687
			c-0.19-0.27-0.398-0.557-0.628-0.864c-0.229-0.308-0.45-0.604-0.663-0.888c-0.213-0.284-0.398-0.537-0.557-0.759
			c-0.158-0.221-0.26-0.37-0.307-0.449h-2.321L604.449,143.549L604.449,143.549z M608.427,137.061c0.695,0,1.172-0.131,1.432-0.391
			s0.391-0.564,0.391-0.911s-0.13-0.651-0.391-0.912c-0.26-0.261-0.738-0.391-1.432-0.391h-3.979v2.605L608.427,137.061
			L608.427,137.061z"/>
	</g>
	<g>
		<path class="st0" d="M408.985,143.753v-6.798h-1.451v-1.164h1.451v-0.419c0-0.3,0.006-0.555,0.02-0.765
			c0.013-0.21,0.038-0.423,0.074-0.641c0.036-0.218,0.088-0.397,0.155-0.543s0.156-0.287,0.265-0.427
			c0.109-0.14,0.244-0.253,0.403-0.337c0.161-0.086,0.351-0.162,0.574-0.229c0.223-0.067,0.478-0.115,0.769-0.144
			c0.29-0.028,0.618-0.043,0.985-0.043h0.395l-0.054,1.342c-0.3,0-0.544,0.008-0.734,0.023c-0.189,0.016-0.356,0.05-0.504,0.102
			c-0.147,0.052-0.259,0.111-0.333,0.179c-0.075,0.067-0.136,0.174-0.183,0.317c-0.046,0.146-0.075,0.296-0.085,0.454
			c-0.01,0.158-0.016,0.371-0.016,0.641v0.488h1.84v1.164h-1.84v6.798h-1.731V143.753z"/>
		<path class="st0" d="M418.358,143.93c-0.667,0-1.269-0.108-1.805-0.325c-0.535-0.218-0.973-0.515-1.312-0.893
			c-0.338-0.377-0.598-0.815-0.776-1.315c-0.178-0.499-0.268-1.041-0.268-1.626c0-0.797,0.155-1.507,0.465-2.13
			c0.31-0.624,0.785-1.122,1.424-1.494s1.397-0.559,2.278-0.559c0.673,0,1.273,0.106,1.801,0.318
			c0.527,0.212,0.956,0.508,1.289,0.888c0.331,0.38,0.583,0.822,0.757,1.327c0.174,0.505,0.26,1.06,0.26,1.665
			c0,0.574-0.09,1.109-0.268,1.606c-0.179,0.496-0.434,0.935-0.769,1.315c-0.334,0.379-0.766,0.68-1.296,0.896
			C419.61,143.82,419.015,143.93,418.358,143.93z M418.35,142.518c0.766,0,1.341-0.256,1.727-0.769
			c0.385-0.512,0.578-1.175,0.578-1.986c0-0.822-0.197-1.489-0.59-2.002c-0.393-0.512-0.967-0.769-1.723-0.769
			c-0.756,0-1.332,0.257-1.73,0.769c-0.398,0.513-0.598,1.18-0.598,2.002c0,0.811,0.197,1.475,0.59,1.986
			C416.997,142.264,417.579,142.518,418.35,142.518z"/>
		<path class="st0" d="M428.561,143.93c-0.667,0-1.269-0.108-1.805-0.325c-0.535-0.218-0.973-0.515-1.312-0.893
			c-0.338-0.377-0.598-0.815-0.776-1.315c-0.178-0.499-0.267-1.041-0.267-1.626c0-0.797,0.155-1.507,0.465-2.13
			c0.31-0.624,0.786-1.122,1.424-1.494c0.639-0.372,1.397-0.559,2.278-0.559c0.673,0,1.273,0.106,1.801,0.318
			c0.527,0.212,0.956,0.508,1.289,0.888c0.331,0.38,0.583,0.822,0.757,1.327c0.174,0.505,0.26,1.06,0.26,1.665
			c0,0.574-0.09,1.109-0.269,1.606c-0.179,0.496-0.434,0.935-0.769,1.315c-0.334,0.379-0.766,0.68-1.296,0.896
			C429.813,143.82,429.218,143.93,428.561,143.93z M428.553,142.518c0.766,0,1.341-0.256,1.727-0.769
			c0.385-0.512,0.578-1.175,0.578-1.986c0-0.822-0.197-1.489-0.59-2.002c-0.393-0.512-0.967-0.769-1.723-0.769
			c-0.756,0-1.332,0.257-1.73,0.769c-0.398,0.513-0.598,1.18-0.598,2.002c0,0.811,0.197,1.475,0.59,1.986
			C427.201,142.264,427.782,142.518,428.553,142.518z"/>
		<path class="st0" d="M438.253,143.93c-1.05,0-1.92-0.376-2.611-1.129c-0.691-0.753-1.036-1.75-1.036-2.991
			c0-0.59,0.083-1.139,0.249-1.645c0.166-0.507,0.402-0.953,0.71-1.338c0.308-0.385,0.703-0.688,1.184-0.908
			c0.481-0.22,1.022-0.329,1.622-0.329c0.569,0,1.059,0.122,1.47,0.364c0.411,0.244,0.692,0.51,0.842,0.799v-4.4h1.738v9.305
			c0,0.238,0.018,0.936,0.055,2.095h-1.77l-0.015-1.141c-0.14,0.33-0.418,0.634-0.834,0.907
			C439.439,143.794,438.906,143.93,438.253,143.93z M438.571,142.518c0.714,0,1.252-0.258,1.614-0.772
			c0.362-0.514,0.543-1.186,0.543-2.014c0-0.801-0.184-1.458-0.551-1.971c-0.367-0.512-0.897-0.769-1.591-0.769
			c-0.699,0-1.234,0.257-1.606,0.769c-0.372,0.513-0.559,1.18-0.559,2.002c0,0.811,0.181,1.475,0.543,1.986
			C437.328,142.264,437.863,142.518,438.571,142.518z"/>
		<path class="st0" d="M453.23,143.93c-0.667,0-1.269-0.108-1.805-0.325c-0.535-0.218-0.973-0.515-1.312-0.893
			c-0.338-0.377-0.598-0.815-0.776-1.315c-0.178-0.499-0.267-1.041-0.267-1.626c0-0.797,0.155-1.507,0.465-2.13
			c0.31-0.624,0.786-1.122,1.424-1.494c0.639-0.372,1.397-0.559,2.278-0.559c0.673,0,1.273,0.106,1.801,0.318
			c0.527,0.212,0.956,0.508,1.289,0.888c0.331,0.38,0.583,0.822,0.757,1.327c0.174,0.505,0.26,1.06,0.26,1.665
			c0,0.574-0.09,1.109-0.269,1.606c-0.179,0.496-0.434,0.935-0.769,1.315c-0.334,0.379-0.766,0.68-1.296,0.896
			C454.481,143.82,453.886,143.93,453.23,143.93z M453.222,142.518c0.766,0,1.341-0.256,1.727-0.769
			c0.385-0.512,0.578-1.175,0.578-1.986c0-0.822-0.197-1.489-0.59-2.002c-0.393-0.512-0.967-0.769-1.723-0.769
			c-0.756,0-1.332,0.257-1.73,0.769c-0.398,0.513-0.598,1.18-0.598,2.002c0,0.811,0.197,1.475,0.59,1.986
			C451.868,142.264,452.45,142.518,453.222,142.518z"/>
		<path class="st0" d="M460.461,143.753v-6.798h-1.451v-1.164h1.451v-0.419c0-0.3,0.006-0.555,0.02-0.765
			c0.013-0.21,0.038-0.423,0.074-0.641c0.036-0.218,0.088-0.397,0.155-0.543c0.067-0.146,0.156-0.287,0.264-0.427
			c0.109-0.14,0.244-0.253,0.403-0.337c0.161-0.086,0.351-0.162,0.574-0.229c0.223-0.067,0.478-0.115,0.769-0.144
			c0.29-0.028,0.618-0.043,0.985-0.043h0.395l-0.054,1.342c-0.3,0-0.544,0.008-0.734,0.023c-0.189,0.016-0.356,0.05-0.504,0.102
			c-0.147,0.052-0.259,0.111-0.333,0.179c-0.075,0.067-0.136,0.174-0.183,0.317c-0.046,0.146-0.075,0.296-0.085,0.454
			c-0.01,0.158-0.016,0.371-0.016,0.641v0.488h1.84v1.164h-1.84v6.798h-1.731V143.753z"/>
		<path class="st0" d="M466.863,143.753v-6.798h-1.451v-1.164h1.451v-0.419c0-0.3,0.006-0.555,0.02-0.765
			c0.013-0.21,0.038-0.423,0.074-0.641c0.036-0.218,0.088-0.397,0.155-0.543s0.156-0.287,0.264-0.427
			c0.109-0.14,0.244-0.253,0.403-0.337c0.161-0.086,0.351-0.162,0.574-0.229c0.223-0.067,0.478-0.115,0.769-0.144
			c0.29-0.028,0.618-0.043,0.985-0.043h0.395l-0.054,1.342c-0.3,0-0.544,0.008-0.734,0.023c-0.189,0.016-0.356,0.05-0.504,0.102
			c-0.147,0.052-0.259,0.111-0.333,0.179c-0.075,0.067-0.136,0.174-0.183,0.317c-0.046,0.146-0.075,0.296-0.085,0.454
			c-0.01,0.158-0.016,0.371-0.016,0.641v0.488h1.84v1.164h-1.84v6.798h-1.731V143.753z"/>
		<path class="st0" d="M470.9,143.753v-7.962h1.7v7.962H470.9z M470.907,134.006v-1.552h1.692v1.552H470.907z"/>
		<path class="st0" d="M478.999,143.93c-0.837,0-1.572-0.188-2.204-0.562c-0.632-0.374-1.107-0.873-1.428-1.494
			c-0.32-0.62-0.481-1.314-0.481-2.079c0-0.807,0.167-1.528,0.5-2.165c0.333-0.637,0.814-1.136,1.443-1.498
			c0.629-0.361,1.354-0.543,2.177-0.543c1.185,0,2.105,0.341,2.763,1.024l-0.613,1.133c-0.564-0.496-1.229-0.745-1.994-0.745
			c-0.761,0-1.361,0.246-1.805,0.737c-0.442,0.492-0.664,1.175-0.664,2.049c0,0.827,0.223,1.489,0.667,1.986
			c0.445,0.496,1.05,0.745,1.816,0.745c0.714,0,1.399-0.246,2.056-0.737l0.536,1.273C480.953,143.638,480.029,143.93,478.999,143.93
			z"/>
		<path class="st0" d="M487.768,143.93c-1.304,0-2.336-0.38-3.096-1.141s-1.141-1.765-1.141-3.011c0-0.771,0.158-1.472,0.473-2.102
			c0.315-0.632,0.782-1.138,1.396-1.518c0.615-0.38,1.328-0.57,2.134-0.57c0.595,0,1.121,0.105,1.579,0.314
			c0.457,0.209,0.825,0.501,1.102,0.876c0.276,0.375,0.485,0.807,0.624,1.297c0.14,0.488,0.21,1.027,0.21,1.617
			c0,0.109-0.013,0.229-0.039,0.357h-5.664c0.031,0.816,0.276,1.433,0.737,1.847c0.46,0.414,1.066,0.621,1.816,0.621
			c0.905,0,1.738-0.289,2.498-0.868l0.489,1.272C489.993,143.595,488.953,143.93,487.768,143.93z M485.385,138.88h4.113
			c-0.067-0.627-0.268-1.105-0.602-1.435c-0.333-0.331-0.762-0.497-1.285-0.497c-0.585,0-1.072,0.171-1.463,0.513
			C485.76,137.801,485.505,138.274,485.385,138.88z"/>
	</g>
</g>
</svg>
