<?xml version="1.0" encoding="utf-8"?>
<!-- Generator: Adobe Illustrator 22.1.0, SVG Export Plug-In . SVG Version: 6.00 Build 0)  -->
<svg version="1.1" id="レイヤー_1" xmlns="http://www.w3.org/2000/svg" xmlns:xlink="http://www.w3.org/1999/xlink" x="0px"
	 y="0px" viewBox="0 0 500 118" style="enable-background:new 0 0 500 118;" xml:space="preserve">
<style type="text/css">
	.st0{fill:#FFCC00;}
</style>
<g>
	<path class="st0" d="M15.393,73.639c-1.328,0-2.125-2.28-2.474-5.98c-0.464-4.917,0.077-15.998,1.626-27.012
		c2.036-14.497,5.816-28.879,11.343-28.943c3.413-0.039,4.204,4.23,3.335,10.413c-1.376,9.795-6.918,24.39-12.793,34.253
		c-0.083,1.224-0.355,4.828-0.393,7.567c-0.031,2.394,0.069,3.356,0.403,3.356c0.388,0,1.092-1.306,2.274-3.182
		c2.199-3.487,4.039-4.633,5.565-4.633c3.561,0,5.276,6.108,8.287,6.108c2.778,0,7.968-5.003,10.106-7.106
		c1.24-1.22,1.969-1.783,2.409-1.783c0.294,0,0.402,0.177,0.361,0.474c-0.078,0.56-0.693,1.548-1.606,2.582
		c-2.41,2.734-8.639,8.536-12.126,8.536c-1.813,0-3.17-1.455-4.408-2.94c-1.45-1.739-2.288-2.862-3.148-2.862
		c-0.88,0-1.783,1.174-3.389,4.062c-1.793,3.228-3.549,7.089-5.376,7.089L15.393,73.639z M16.757,52.198
		c5.124-9.922,9.065-22.543,10.189-30.538c0.662-4.71,0.346-7.814-1.284-7.814c-3.126,0-5.815,13.619-7.412,24.983
		C17.452,44.51,16.927,49.627,16.757,52.198L16.757,52.198z"/>
	<path class="st0" d="M57.549,65.193c-3.543,0-5.764-2.161-6.411-4.114c-0.201-0.607-0.144-0.918-0.931-0.315
		c-1.533,1.177-4.107,2.873-5.935,2.873c-0.48,0-0.909-0.118-1.254-0.392c-0.667-0.53-0.858-1.472-0.696-2.616
		c0.56-3.99,5.404-10.439,9.315-10.439c1.737,0,2.291,1.033,2.153,2.007c-0.151,1.081-1.153,2.088-2.332,1.531
		c-2.054-0.96-7.274,6.058-6.231,7.106c1.134,1.14,5.219-3.004,6.111-3.629c0.326-0.229,0.67-0.322,0.991-0.322
		c0.78,0,1.43,0.553,1.384,1.066c-0.029,0.318-0.168,0.609-0.28,0.918c-0.505,1.386,1.017,4.115,4.627,4.115
		c4.651,0,9.386-4.339,10.924-5.603c0.812-0.665,1.355-0.942,1.641-0.942c0.184,0,0.26,0.115,0.231,0.316
		c-0.051,0.353-0.422,0.969-1.104,1.695c-2.938,3.159-7.785,6.746-12.204,6.746L57.549,65.193z"/>
	<path class="st0" d="M90.763,108.565c-0.72,0-1.252-0.665-1.198-4.012c0.054-3.29,0.735-9.1,1.595-15.213
		c1.093-7.777,2.473-16.05,3.215-20.258l0.033-0.189c-0.354-0.284-0.702-0.579-1.035-0.926c-0.508-0.53-0.688-0.965-0.646-1.257
		c0.065-0.465,0.692-0.563,1.45-0.094c0.193,0.12,0.387,0.21,0.586,0.289c0.366-2.031,1.068-5.899,1.812-9.37
		c-5.414,7.807-13.372,7.348-15.04,7.57c-0.945,0.583-2.071,1.03-2.887,1.03c-0.713,0-1.222-0.342-1.097-1.231
		c0.143-1.013,1.304-2.136,3.945-2.136c2.059-1.665,3.023-3.406,3.217-4.778c0.215-1.526-0.529-2.597-1.79-2.597
		c-5.377,0-8.939,14.875-10.769,27.891c-0.89,6.328-1.368,12.218-1.447,15.743c-0.06,2.515,0.027,2.654,0.427,4.112
		c0.124,0.45,0.161,0.938,0.098,1.39c-0.13,0.928-0.686,1.702-1.796,1.677c-0.584-0.014-1.188-0.384-1.558-1.384
		c-1.382-3.748-1.769-26.551,0.649-43.761c0.746-5.302,1.757-10.072,3.088-13.592c0.294-0.778,1.393-1.42,2.253-1.42
		c0.797,0,1.389,0.552,0.94,2.062c-1.349,4.553-2.413,10.09-3.228,15.879c-0.921,6.559-1.521,13.441-1.848,19.581
		c-0.072,1.368-0.044,2.113,0.047,2.113c0.066,0,0.167-0.398,0.285-1.246c0.223-1.585,0.396-3.29,0.645-5.058
		c1.677-11.931,5.186-26.654,12.578-26.654c3.042,0,4.337,2.347,3.962,5.015c-0.253,1.797-1.262,3.738-3.004,5.207
		c6.671-0.504,11.554-5.313,13.98-11.715c0.59-1.567,1.29-2.576,2.239-2.576c1.079,0,1.272,0.68,1.123,1.743
		c-0.102,0.722-0.36,1.618-0.609,2.599c-1.399,5.532-2.396,9.518-3.566,15.109c0.354,0.112,0.709,0.202,1.065,0.271
		c1.591-4.51,4.043-10.783,8.674-10.783c2.412,0,3.389,1.957,3.052,4.35c-0.506,3.605-3.999,8.201-10.059,8.565
		c-3.888,10.754-5.923,21.344-6.853,27.954c-0.384,2.729-0.579,4.78-0.638,5.885c-0.036,0.665,0.021,1.556-0.091,2.346
		c-0.143,1.013-0.56,1.86-1.797,1.86L90.763,108.565z M95.883,76.46c0.521-1.599,1.155-3.763,1.915-6.07
		c-0.272-0.047-0.544-0.105-0.814-0.177C96.538,72.456,96.154,74.584,95.883,76.46L95.883,76.46z M100.921,68.435
		c4.101-0.646,6.374-3.998,6.682-6.187c0.156-1.113-0.196-1.927-1.078-1.927C104.153,60.322,101.842,66.086,100.921,68.435
		L100.921,68.435z"/>
	<path class="st0" d="M115.489,115.455c-3.236,0-6.195-3.272-5.282-9.767c0.926-6.584,5.828-16.479,18.452-29.635
		c0.741-7.633,1.163-15.077,1.641-21.2c0.148-1.928,0.294-2.741,0.247-2.741c-0.051,0-0.345,1.03-1.147,2.657
		c-1.209,2.478-5.381,9.135-8.557,9.216c-3.235,0.09-3.275-4.631-3.42-8.017c-0.056-1.299-0.418-2.726-0.266-3.815
		c0.11-0.784,0.489-1.393,1.444-1.653c0.155-0.042,0.313-0.063,0.472-0.063c0.634,0,1.245,0.349,1.536,1.103
		c0.523,1.332-0.754,9.364,1.008,9.301c1.71-0.039,7.163-9.156,8.468-11.477c1.24-2.165,2.12-3.249,2.707-3.249
		c0.64,0,0.93,1.294,0.958,3.885c0.056,6.664-0.11,14.117-0.69,21.631c4.654-4.563,9.043-8.681,12.234-12.631
		c1.389-1.72,2.297-2.353,2.748-2.353c0.267,0,0.378,0.207,0.325,0.577c-0.08,0.572-0.551,1.535-1.446,2.729
		c-3.427,4.571-8.724,9.765-14.182,15.425c-0.182,1.884-0.441,4.184-0.798,6.718c-1.882,13.391-6.457,33.36-16.45,33.36
		L115.489,115.455z M115.694,113.475c6.941,0,10.461-18.104,11.933-28.576c0.263-1.864,0.461-3.487,0.601-4.723
		c-11.159,12.315-15.109,20.682-15.85,25.949c-0.727,5.168,1.639,7.352,3.317,7.352L115.694,113.475z"/>
	<path class="st0" d="M170.629,69.812c-2.987,0-1.868-13.032-0.962-17.671c0.427-2.182,2.336-3.606,3.188-3.606
		c0.812,0,0.834,0.685,0.729,1.43c-0.084,0.594-0.368,2.237-0.696,4.581c-0.23,1.64-0.483,3.622-0.704,5.828
		c-0.228,2.282-0.258,3.38,0.037,3.38c0.308,0,0.971-1.195,2.131-3.489c1.105-2.183,3.223-6.067,5.577-6.067
		c2.715,0,2.232,4.734,2.078,6.989c-0.093,1.355-0.093,2.266,0.309,2.266c0.419,0,1.277-0.996,2.925-3.523
		c1.344-2.061,2.465-2.692,3.406-2.692c2.568,0,3.076,5.627,6.915,5.627c1.872,0,4.328-1.201,6.498-2.774
		c2.613-1.896,3.745-3.521,4.814-3.521c1.036,0-0.396,2.244-4.076,5.021c-2.742,2.07-5.606,3.516-8.094,3.516
		c-2.571,0-3.808-1.451-4.658-2.751c-0.691-1.061-1.132-2.005-1.778-2.005c-0.546,0-1.24,0.674-2.359,2.522
		c-1.923,3.171-3.417,4.348-4.469,4.348c-3.419,0-0.632-8.942-2.419-8.942c-1.918,0-5.898,11.532-8.391,11.532L170.629,69.812z"/>
	<path class="st0" d="M208.519,72.529c-3.46,0-5.591-3.023-4.768-8.879c0.18-1.278,1.032-6.578,2.684-7.146
		c0.238-0.082,0.448-0.121,0.631-0.121c1.206,0,1.256,1.664,1.024,3.313c-0.187,1.322-0.553,2.634-0.65,3.071
		c-0.153,0.688-0.271,1.323-0.354,1.907c-0.504,3.587,0.313,5.246,2.078,5.246c3.853,0,10.38-7.145,13.031-10.522
		c1.028-1.312,1.766-2.242,2.231-2.242c0.275,0,0.374,0.18,0.33,0.494c-0.078,0.56-0.606,1.548-1.396,2.738
		c-2.8,4.215-9.63,12.142-14.844,12.142L208.519,72.529z M208.959,49.807c-0.646,0-1.155-0.615-1.021-1.572
		c0.072-0.515,0.331-1.129,0.856-1.799c0.42-0.537,0.886-0.794,1.273-0.794c0.566,0,0.968,0.549,0.823,1.574
		c-0.26,1.848-1.222,2.591-1.931,2.591H208.959z"/>
	<path class="st0" d="M224.394,67.263c-1.07,0-1.716-0.474-1.681-1.974c0.028-1.187,0.748-8.629,0.748-8.629
		c0.042-1.699-0.448-1.824,0.028-3.336c0.214-0.688,0.88-1.384,1.72-1.384c1.518,0,1.493,2.698,1.335,4.412
		c-0.133,1.449-0.392,3.79-0.443,4.287c-0.196,1.889-0.193,2.738,0.107,2.738c0.366,0,1.174-1.263,2.6-3.448
		c1.295-1.988,2.381-2.685,3.295-2.685c1.073,0,1.908,0.96,2.565,1.918c1.52,2.211,2.984,3.656,5.087,3.656
		c2.113,0,4.872-1.459,8.981-5.068c0.909-0.792,1.49-1.103,1.802-1.103c0.229,0,0.312,0.168,0.275,0.436
		c-0.062,0.436-0.448,1.139-1.057,1.811c-1.202,1.324-2.569,2.539-4.002,3.54c-2.407,1.682-4.869,2.729-7.074,2.729
		c-1.908,0-3.622-0.785-4.941-2.623c-0.993-1.389-1.565-2.111-2.116-2.111c-0.493,0-0.969,0.583-1.714,1.789
		c-1.065,1.728-2.978,4.76-4.908,5c-0.216,0.027-0.42,0.042-0.61,0.042L224.394,67.263z"/>
	<path class="st0" d="M267.166,84.305c-0.75,0.7-3.403-0.399-4.276-5.011c-1.186-6.284-0.991-14.639,0.072-23.533
		c-2.418,3.789-7.08,10.393-11.335,10.393c-2.844,0-4.014-2.856-3.567-6.037c0.491-3.495,2.935-7.38,7.256-8.292
		c0.365-0.078,0.72-0.117,1.055-0.117c1.526,0,2.658,0.803,2.658,2.422c0,0.095-0.006,0.186-0.019,0.274
		c-0.12,0.849-0.789,1.324-1.395,1.324c-0.932,0-0.474-1.198-1.797-1.198c-2.44,0-4.2,3.212-4.564,5.799
		c-0.245,1.744,0.146,3.205,1.39,3.205c3.334,0,9.371-10.412,11.105-13.504c2.216-14.211,6.319-28.959,10.37-38.348
		c2.908-6.741,5.735-10.11,7.388-10.11c1.23,0,1.81,1.868,1.284,5.604c-0.201,1.433-0.565,3.142-1.118,5.125
		c-2.547,9.153-7.939,24.02-14.727,36.618c-1.675,10.745-2.277,20.985-0.718,28.661c0.816,4.039,2.092,5.647,0.936,6.726
		L267.166,84.305z M268.316,41.171c4.729-9.95,8.754-20.805,11.194-29.173c0.726-2.455,1.155-4.308,1.329-5.546
		c0.173-1.233,0.092-1.856-0.205-1.856c-0.57,0-1.939,2.309-3.834,7.025c-2.693,6.708-6.069,17.281-8.486,29.551L268.316,41.171z"/>
	<path class="st0" d="M313.265,65.193c-3.543,0-5.764-2.161-6.411-4.114c-0.201-0.607-0.144-0.918-0.931-0.315
		c-1.533,1.177-4.107,2.873-5.935,2.873c-0.48,0-0.909-0.118-1.254-0.392c-0.667-0.53-0.858-1.472-0.696-2.616
		c0.56-3.99,5.404-10.439,9.315-10.439c1.737,0,2.291,1.033,2.153,2.007c-0.151,1.081-1.153,2.088-2.332,1.531
		c-2.054-0.96-7.274,6.058-6.231,7.106c1.133,1.14,5.219-3.004,6.111-3.629c0.326-0.229,0.67-0.322,0.991-0.322
		c0.78,0,1.43,0.553,1.384,1.066c-0.029,0.318-0.168,0.609-0.28,0.918c-0.505,1.386,1.017,4.115,4.627,4.115
		c4.651,0,9.386-4.339,10.924-5.603c0.812-0.665,1.355-0.942,1.641-0.942c0.184,0,0.26,0.115,0.231,0.316
		c-0.051,0.353-0.422,0.969-1.104,1.695c-2.938,3.159-7.785,6.746-12.204,6.746L313.265,65.193z"/>
	<path class="st0" d="M325.929,67.263c-1.07,0-1.716-0.474-1.681-1.974c0.028-1.187,0.748-8.629,0.748-8.629
		c0.042-1.699-0.448-1.824,0.028-3.336c0.214-0.688,0.88-1.384,1.72-1.384c1.518,0,1.493,2.698,1.335,4.412
		c-0.133,1.449-0.392,3.79-0.443,4.287c-0.196,1.889-0.193,2.738,0.107,2.738c0.366,0,1.174-1.263,2.6-3.448
		c1.295-1.988,2.381-2.685,3.295-2.685c1.073,0,1.908,0.96,2.565,1.918c1.52,2.211,2.984,3.656,5.087,3.656
		c2.113,0,4.872-1.459,8.981-5.068c0.909-0.792,1.49-1.103,1.802-1.103c0.229,0,0.312,0.168,0.275,0.436
		c-0.062,0.436-0.448,1.139-1.057,1.811c-1.202,1.324-2.569,2.539-4.002,3.54c-2.407,1.682-4.869,2.729-7.074,2.729
		c-1.908,0-3.622-0.785-4.941-2.623c-0.993-1.389-1.565-2.111-2.116-2.111c-0.493,0-0.969,0.583-1.714,1.789
		c-1.065,1.728-2.978,4.76-4.908,5c-0.216,0.027-0.42,0.042-0.61,0.042L325.929,67.263z"/>
	<path class="st0" d="M368.702,84.305c-0.75,0.7-3.403-0.399-4.276-5.011c-1.186-6.284-0.991-14.639,0.072-23.533
		c-2.418,3.789-7.08,10.393-11.335,10.393c-2.844,0-4.014-2.856-3.567-6.037c0.491-3.495,2.935-7.38,7.256-8.292
		c0.365-0.078,0.72-0.117,1.055-0.117c1.526,0,2.658,0.803,2.658,2.422c0,0.095-0.006,0.186-0.019,0.274
		c-0.12,0.849-0.789,1.324-1.395,1.324c-0.932,0-0.474-1.198-1.797-1.198c-2.44,0-4.2,3.212-4.564,5.799
		c-0.245,1.744,0.146,3.205,1.39,3.205c3.334,0,9.371-10.412,11.105-13.504c2.216-14.211,6.319-28.959,10.37-38.348
		c2.908-6.741,5.735-10.11,7.388-10.11c1.23,0,1.81,1.868,1.284,5.604c-0.201,1.433-0.565,3.142-1.118,5.125
		c-2.547,9.153-7.939,24.02-14.727,36.618c-1.675,10.745-2.277,20.985-0.718,28.661c0.816,4.039,2.092,5.647,0.936,6.726
		L368.702,84.305z M369.853,41.171c4.729-9.95,8.754-20.805,11.194-29.173c0.726-2.455,1.155-4.308,1.329-5.546
		c0.173-1.233,0.092-1.856-0.205-1.856c-0.57,0-1.939,2.309-3.834,7.025c-2.693,6.708-6.069,17.281-8.486,29.551L369.853,41.171z"/>
	<path class="st0" d="M403.94,94.781c-0.774,0.917-2.986-1.026-3.727-7.002c-1.314-10.597-0.665-23.827,1.133-36.624
		c2.329-16.567,6.584-32.41,11.004-40.873c2.116-4.051,4.474-6.389,6.125-6.389c1.682,0,2.625,2.423,1.851,7.934
		c-1.535,10.927-8.82,30.784-16.422,43.617c-1.624,13.198-1.597,23.925-0.701,30.614c0.541,4.069,1.403,6.229,1.204,7.651
		C404.349,94.119,404.203,94.467,403.94,94.781L403.94,94.781z M404.573,50.493c6.383-12.741,11.863-29.606,13.455-38.23
		c0.099-0.534,0.18-1.028,0.244-1.482c0.403-2.869,0.134-4.164-0.517-4.164c-0.738,0-1.967,1.668-3.259,4.597
		C411.008,19.126,406.742,35.901,404.573,50.493L404.573,50.493z"/>
	<path class="st0" d="M418.592,72.529c-3.46,0-5.591-3.023-4.768-8.879c0.18-1.278,1.032-6.578,2.684-7.146
		c0.238-0.082,0.448-0.121,0.631-0.121c1.206,0,1.256,1.664,1.024,3.313c-0.187,1.322-0.553,2.634-0.65,3.071
		c-0.153,0.688-0.271,1.323-0.354,1.907c-0.504,3.587,0.313,5.246,2.078,5.246c3.853,0,10.38-7.145,13.031-10.522
		c1.028-1.312,1.766-2.242,2.231-2.242c0.275,0,0.374,0.18,0.33,0.494c-0.078,0.56-0.606,1.548-1.396,2.738
		c-2.8,4.215-9.63,12.142-14.844,12.142L418.592,72.529z M419.032,49.807c-0.646,0-1.155-0.615-1.021-1.572
		c0.072-0.515,0.331-1.129,0.856-1.799c0.42-0.537,0.886-0.794,1.273-0.794c0.566,0,0.968,0.549,0.823,1.574
		c-0.26,1.848-1.222,2.591-1.931,2.591H419.032z"/>
	<path class="st0" d="M432.929,104.865c-6.427,0-1.784-32.155,0.335-47.14c-0.553-0.403-1.053-0.678-1.577-1.23
		c-0.312-0.328-0.465-0.766-0.408-1.168c0.054-0.379,0.294-0.728,0.765-0.925c0.271-0.114,0.921-0.288,1.776-0.489
		c1.647-11.013,3.546-21.029,4.843-26.08c0.572-2.233,2.649-8.56,4.479-8.56c0.863,0,0.967,1.199,0.751,2.737
		c-0.329,2.34-1.396,5.466-1.653,6.356c-1.614,5.563-3.498,14.863-5.168,24.859c2.987-0.58,6.447-1.132,7.98-1.132
		c1.382,0,1.955,0.287,1.906,0.634c-0.045,0.324-0.629,0.701-1.603,0.949c-4.627,1.182-7.268,1.705-8.696,2.042
		c-0.119,0.742-0.238,1.484-0.354,2.227c5.392,7.388,6.096,18.674,4.739,28.325c-1.436,10.212-5.177,18.595-8.11,18.595
		L432.929,104.865z M433.21,102.032c1.534,0,4.199-7.337,5.447-16.218c1.222-8.688,1.086-18.854-2.788-25.073
		c-0.11,0.733-0.429,2.84-0.836,5.738C433.414,78.002,430.37,102.032,433.21,102.032L433.21,102.032z"/>
	<path class="st0" d="M457.993,68.252c-5.246,0-8.774-3.579-7.969-9.31c0.735-5.234,5.021-8.714,7.892-8.714
		c0.905,0,1.669,0.347,2.137,1.093c0.312,0.498,0.427,1.145,0.327,1.854c-0.301,2.132-2.538,4.834-7.172,5.788
		c-0.484,4.964,1.951,7.123,5.483,7.123c3.435,0,8.15-2.141,13.453-7.362c1.371-1.349,2.128-1.945,2.552-1.945
		c0.212,0,0.288,0.14,0.256,0.373c-0.076,0.539-0.735,1.587-1.632,2.604c-5.247,5.946-10.894,8.499-15.325,8.499L457.993,68.252z
		 M453.775,56.611c2.354-0.175,3.87-1.9,4.032-3.05c0.082-0.59-0.191-1.029-0.894-1.029
		C455.767,52.532,454.436,54.412,453.775,56.611L453.775,56.611z"/>
	<path class="st0" d="M480.249,69.15c-1.092,0-1.711-0.829-1.553-1.954c0.053-0.375,0.19-0.768,0.421-1.142
		c0.551-0.896,1.574-1.516,2.396-1.516c1.213,0,1.667,1.178,1.52,2.225c-0.166,1.187-1.132,2.386-2.785,2.386L480.249,69.15z"/>
</g>
</svg>
