<?xml version="1.0" encoding="utf-8"?>
<!-- Generator: Adobe Illustrator 22.1.0, SVG Export Plug-In . SVG Version: 6.00 Build 0)  -->
<svg version="1.1" id="レイヤー_1" xmlns="http://www.w3.org/2000/svg" xmlns:xlink="http://www.w3.org/1999/xlink" x="0px"
	 y="0px" viewBox="0 0 550 118" style="enable-background:new 0 0 550 118;" xml:space="preserve">
<style type="text/css">
	.st0{fill:#FFCC00;}
</style>
<g>
	<path class="st0" d="M69.517,111.596c-0.565,0-1.472-0.422-2.5-1.296c-10.825-9.128-12.375-30.537-10.792-51.187
		c-2.168-0.344-4.287-0.505-6.341-0.505c-3.44,0-6.701,0.45-9.718,1.248c-2.926,6.92-10.459,28.608-18.607,28.608
		c-3.281,0-5.131-4.229-4.368-9.651c1.046-7.445,7.015-17.145,20.958-21.246c8.255-19.48,20.057-44.576,26.467-44.576
		c1.839,0,1.839,2.996,1.4,6.119c-0.677,4.809-2.554,14.022-4.089,24.952c-0.612,4.35-1.169,8.973-1.576,13.697
		c2.56,0.786,5.125,1.848,7.658,3.23c0.485,0.265,0.662,0.625,0.619,0.928c-0.065,0.459-0.634,0.786-1.391,0.454
		c-2.388-1.042-4.747-1.84-7.062-2.434c-1.387,18.395-0.337,37.927,8.663,48.703c0.982,1.178,1.345,2.019,1.277,2.494
		c-0.042,0.305-0.26,0.459-0.604,0.459L69.517,111.596z M36.721,60.94C24.92,65.364,20.326,73.645,19.497,79.547
		c-0.55,3.916,0.557,6.784,2.316,6.784C27.321,86.331,34.532,66.188,36.721,60.94z M56.416,56.766
		c0.373-4.231,0.868-8.411,1.432-12.423c0.964-6.856,2.129-13.226,3.232-18.543c0.304-1.464,0.538-2.751,0.689-3.83
		c0.337-2.401,0.265-3.771-0.357-3.771c-0.794,0-2.485,2.231-5.361,7.393c-4.254,7.631-9.819,20.032-14.568,31.155
		c2.376-0.469,4.849-0.719,7.384-0.719c2.471,0,5,0.238,7.553,0.742L56.416,56.766z"/>
	<path class="st0" d="M94.137,75.405c0.238-1.689,0.683-3.703,1.408-6.065c0.57-10.147,1.277-23.461,2.997-35.701
		c0.707-5.028,1.584-9.875,2.694-14.246C104.034,8.359,108.567,3,111.968,3c3.263,0,5.483,4.929,4.137,14.512
		c-0.19,1.352-0.452,2.796-0.791,4.333c-2.772,12.553-8.213,25.764-15.835,36.395c-0.135,1.744-0.267,3.438-0.393,5.037
		c2.769-4.308,6.548-8.674,9.391-8.674c0.445,0,0.868,0.108,1.259,0.339c0.743,0.438,1.023,1.267,0.875,2.321
		c-0.444,3.156-4.723,8.332-11.897,11.098c1.436,2.927,4.034,6.724,7.51,6.724c5.159,0,12.319-7.753,15.887-11.985
		c2.353-2.788,3.917-4.66,4.575-4.66c1.117,0-1.699,4.05-3.524,6.252c-4.125,4.98-11.671,13.12-17.54,13.12
		c-3.261,0-5.763-2.589-7.395-5.166c-0.668,5.979-1.467,9.83-2.696,9.83C94.509,82.475,93.448,80.312,94.137,75.405z M99.761,54.553
		c6.035-9.082,10.867-21.965,13.118-32.472c0.414-1.932,0.727-3.687,0.949-5.27c1.117-7.945-0.029-11.581-1.965-11.581
		c-2.3,0-5.716,5.123-7.788,14.236c-0.691,3.039-1.286,6.5-1.803,10.188c-1.111,7.908-1.875,16.855-2.506,24.898H99.761z
		 M100.45,65.302c3.034-0.7,8.956-7.084,7.839-8.31C107.113,55.701,101.238,63.338,100.45,65.302L100.45,65.302z"/>
	<path class="st0" d="M128.621,74.179c-3.46,0-5.591-3.023-4.768-8.879c0.18-1.278,1.033-6.578,2.684-7.146
		c0.239-0.082,0.449-0.121,0.631-0.121c1.206,0,1.256,1.664,1.024,3.313c-0.187,1.322-0.553,2.634-0.65,3.071
		c-0.154,0.688-0.271,1.323-0.354,1.907c-0.504,3.587,0.314,5.246,2.079,5.246c3.853,0,10.38-7.145,13.031-10.522
		c1.029-1.312,1.766-2.242,2.232-2.242c0.275,0,0.374,0.18,0.331,0.494c-0.079,0.56-0.607,1.548-1.397,2.738
		c-2.8,4.215-9.63,12.142-14.844,12.142L128.621,74.179z M129.061,51.457c-0.646,0-1.156-0.615-1.021-1.572
		c0.072-0.515,0.332-1.129,0.856-1.799c0.42-0.537,0.885-0.794,1.273-0.794c0.566,0,0.968,0.549,0.824,1.574
		c-0.26,1.848-1.222,2.591-1.931,2.591H129.061z"/>
	<path class="st0" d="M144.496,68.912c-1.071,0-1.716-0.474-1.681-1.974c0.029-1.187,0.748-8.629,0.748-8.629
		c0.042-1.699-0.448-1.824,0.029-3.336c0.214-0.688,0.88-1.384,1.719-1.384c1.518,0,1.493,2.698,1.335,4.412
		c-0.132,1.449-0.391,3.79-0.444,4.287c-0.196,1.889-0.192,2.738,0.107,2.738c0.367,0,1.174-1.263,2.6-3.448
		c1.295-1.988,2.381-2.685,3.295-2.685c1.073,0,1.908,0.96,2.566,1.918c1.519,2.211,2.983,3.656,5.087,3.656
		c2.113,0,4.872-1.459,8.98-5.068c0.909-0.792,1.491-1.103,1.802-1.103c0.229,0,0.312,0.168,0.275,0.436
		c-0.061,0.436-0.448,1.139-1.057,1.811c-1.202,1.324-2.568,2.539-4.001,3.54c-2.407,1.682-4.869,2.729-7.074,2.729
		c-1.908,0-3.623-0.785-4.942-2.623c-0.993-1.389-1.565-2.111-2.116-2.111c-0.494,0-0.969,0.583-1.714,1.789
		c-1.065,1.728-2.978,4.76-4.908,5c-0.216,0.027-0.42,0.042-0.61,0.042L144.496,68.912z"/>
	<path class="st0" d="M187.269,85.955c-0.75,0.7-3.404-0.399-4.277-5.011c-1.186-6.284-0.992-14.639,0.073-23.533
		c-2.418,3.789-7.08,10.393-11.335,10.393c-2.844,0-4.014-2.856-3.568-6.037c0.492-3.495,2.935-7.38,7.257-8.292
		c0.365-0.078,0.719-0.117,1.054-0.117c1.527,0,2.659,0.803,2.659,2.422c0,0.095-0.006,0.186-0.019,0.274
		c-0.12,0.849-0.789,1.324-1.395,1.324c-0.932,0-0.474-1.198-1.797-1.198c-2.441,0-4.2,3.212-4.564,5.799
		c-0.245,1.744,0.145,3.205,1.389,3.205c3.333,0,9.371-10.412,11.105-13.504c2.215-14.211,6.319-28.959,10.37-38.348
		c2.909-6.741,5.736-10.11,7.388-10.11c1.23,0,1.81,1.868,1.284,5.604c-0.201,1.433-0.565,3.142-1.118,5.125
		c-2.547,9.153-7.939,24.02-14.727,36.618c-1.674,10.745-2.277,20.985-0.718,28.661c0.816,4.039,2.092,5.647,0.935,6.726
		L187.269,85.955z M188.419,42.821c4.728-9.95,8.753-20.805,11.194-29.173c0.725-2.455,1.155-4.308,1.329-5.546
		c0.173-1.233,0.091-1.856-0.205-1.856c-0.57,0-1.939,2.309-3.833,7.025c-2.694,6.708-6.07,17.281-8.487,29.551L188.419,42.821z"/>
	<path class="st0" d="M220.446,87.135c-2.53,0-2.922-4.145-3.007-8.082c-0.105-4.959,0.515-11.527,1.495-18.5
		c0.625-4.443,2.539-15.202,4.447-24.544c-4.253,0.729-7.924,1.39-10.076,1.538c-0.209,0.014-0.414,0.021-0.613,0.021
		c-1.701,0-2.943-0.637-2.709-2.3c0.105-0.747,0.616-1.006,1.227-1.006c1.338,0,1.819,0.535,3.017,0.496
		c0.352-0.011,4.426-0.652,9.696-1.353c1.021-4.854,2.007-9.084,2.752-11.478c0.644-2.067,1.564-4.106,2.985-4.639
		c0.869-0.327,1.039,0.487,0.839,1.914c-0.161,1.146-0.562,2.686-1.03,4.351c-0.904,3.201-1.727,6.355-2.478,9.458
		c5.789-0.722,12.341-1.393,16.913-1.393c1.334,0,2.5,0.058,3.428,0.188c0.966,0.132,2.798,0.249,2.593,1.578
		c-0.109,0.695-0.679,0.885-1.327,0.885c-0.655,0-1.391-0.194-1.811-0.256c-1.222-0.183-2.6-0.263-4.085-0.263
		c-4.851,0-10.846,0.851-16.297,1.75c-1.804,7.808-3.147,15.282-4.143,22.361c-1.044,7.431-1.712,14.522-1.576,19.702
		c0.124,4.639,0.637,6.021,1.312,6.021c0.876,0,2.476-3.032,3.278-3.032c1.125,0-1.529,6.584-4.825,6.584H220.446z"/>
	<path class="st0" d="M246.496,66.843c-3.542,0-5.764-2.161-6.411-4.114c-0.202-0.607-0.144-0.918-0.931-0.315
		c-1.533,1.177-4.107,2.873-5.935,2.873c-0.48,0-0.909-0.118-1.254-0.392c-0.667-0.53-0.858-1.472-0.697-2.616
		c0.56-3.99,5.405-10.439,9.316-10.439c1.737,0,2.291,1.033,2.153,2.007c-0.151,1.081-1.153,2.088-2.332,1.531
		c-2.053-0.96-7.274,6.058-6.231,7.106c1.133,1.14,5.218-3.004,6.111-3.629c0.326-0.229,0.67-0.322,0.992-0.322
		c0.78,0,1.429,0.553,1.383,1.066c-0.029,0.318-0.167,0.609-0.28,0.918c-0.505,1.386,1.017,4.115,4.626,4.115
		c4.652,0,9.386-4.339,10.924-5.603c0.812-0.665,1.355-0.942,1.641-0.942c0.184,0,0.26,0.115,0.231,0.316
		c-0.051,0.353-0.422,0.969-1.104,1.695c-2.938,3.159-7.785,6.746-12.205,6.746L246.496,66.843z"/>
	<path class="st0" d="M259.955,79.412c-2.286,0.025-1.977-4.664-1.948-8.661c0.075-9.541,0.119-20.418,1.633-31.195
		c1.326-9.436,3.779-18.794,8.37-27.11c1.941-3.521,4.235-5.434,6.008-5.434c2.165,0,3.468,2.85,2.593,9.071
		c-1.696,12.069-9.745,32.367-14.979,40.845c-0.146,5.108-0.025,9.317,0.225,11.845c4.153-8.272,8.933-11.559,12.005-11.559
		c2.497,0,3.454,1.772,3.107,4.24c-0.518,3.685-3.939,8.919-9.474,12.127c-0.875,0.508-2.013,1.179-2.795,1.179
		c-0.377,0-0.673-0.158-0.813-0.566c-0.062-0.18-0.078-0.343-0.057-0.495c0.125-0.885,1.541-1.373,2.924-2.081
		c3.758-1.93,7.525-7.315,7.931-10.201c0.158-1.135-0.202-1.882-1.286-1.882c-1.964,0-5.824,3.107-9.278,10.434
		c-3.125,6.625-1.677,9.413-4.168,9.439L259.955,79.412z M261.796,52.931c5.112-9.886,11.229-28.699,12.541-38.035
		c0.519-3.696,0.191-5.533-0.696-5.533c-0.777,0-1.982,1.408-3.424,4.208c-3.607,7.01-5.814,16.34-7.096,25.454
		C262.443,43.845,262.026,48.605,261.796,52.931L261.796,52.931z"/>
	<path class="st0" d="M285.152,96.431c-0.774,0.917-2.986-1.026-3.727-7.002c-1.314-10.597-0.665-23.827,1.133-36.624
		c2.329-16.567,6.584-32.41,11.004-40.873c2.116-4.051,4.474-6.389,6.125-6.389c1.682,0,2.625,2.423,1.851,7.934
		c-1.535,10.927-8.82,30.784-16.422,43.617c-1.624,13.198-1.597,23.925-0.701,30.614c0.541,4.069,1.403,6.229,1.204,7.651
		C285.562,95.769,285.416,96.116,285.152,96.431L285.152,96.431z M285.786,52.143c6.383-12.741,11.863-29.606,13.455-38.23
		c0.099-0.534,0.18-1.028,0.244-1.482c0.403-2.869,0.134-4.164-0.517-4.164c-0.738,0-1.967,1.668-3.259,4.597
		C292.221,20.775,287.955,37.55,285.786,52.143L285.786,52.143z"/>
	<path class="st0" d="M303.819,69.901c-5.246,0-8.774-3.579-7.969-9.31c0.735-5.234,5.021-8.714,7.892-8.714
		c0.905,0,1.669,0.347,2.137,1.093c0.312,0.498,0.427,1.145,0.327,1.854c-0.301,2.132-2.538,4.834-7.172,5.788
		c-0.484,4.964,1.951,7.123,5.483,7.123c3.435,0,8.15-2.141,13.453-7.362c1.371-1.349,2.128-1.945,2.552-1.945
		c0.212,0,0.288,0.14,0.256,0.373c-0.076,0.539-0.735,1.587-1.632,2.604c-5.247,5.946-10.894,8.499-15.325,8.499L303.819,69.901z
		 M299.602,58.261c2.354-0.175,3.87-1.9,4.032-3.05c0.082-0.59-0.191-1.029-0.894-1.029
		C301.593,54.181,300.262,56.062,299.602,58.261L299.602,58.261z"/>
	<path class="st0" d="M346.711,73.652c-5.083,0-6.887-4.883-6.188-9.848c0.973-6.921,7.096-13.625,11.372-13.625
		c1.801,0,2.95,1.317,2.54,4.23c-0.317,2.265-1.293,3.079-2.11,3.079c-0.843,0-1.52-0.863-1.141-1.895
		c0.151-0.41,0.307-0.934,0.375-1.42c0.106-0.755,0.003-1.419-0.654-1.419c-2.299,0-6.258,6.506-6.982,11.663
		c-0.479,3.404,0.441,6.109,3.701,6.109c5.448,0,12.026-6.983,15.733-10.672c0.421-0.418,2.019-2.094,2.528-1.713
		c0.149,0.111,0.191,0.285,0.163,0.494c-0.106,0.759-1.159,1.974-1.453,2.307c-4.329,4.899-11.107,12.708-17.884,12.708V73.652z"/>
	<path class="st0" d="M364.943,74.065c-2.212-0.103-1.458-2.834-1.33-4.835c0.14-2.195,0.519-11.085,0.713-12.46
		c0.346-2.466,1.398-4.089,2.877-4.816c0.344-0.168,0.63-0.244,0.865-0.244c0.895,0,1.037,1.083,0.749,2.16
		c-0.438,1.641-0.665,2.789-0.828,3.944c-0.134,0.954-0.224,1.913-0.35,3.159c-0.161,1.596-0.277,2.447-0.102,2.447
		c0.172,0,0.618-0.805,1.568-2.513c4.757-8.562,9.952-11.056,12.823-11.056c0.988,0,1.701,0.295,2.025,0.741
		c0.292,0.397,0.399,0.981,0.325,1.508c-0.092,0.655-0.466,1.219-1.116,1.219c-0.311,0-0.683-0.127-1.118-0.435
		c-1.981-1.398-10.762,4.923-14.792,17.272c-0.705,2.167-0.776,3.977-2.311,3.906V74.065z"/>
	<path class="st0" d="M394.101,69.901c-5.246,0-8.774-3.579-7.969-9.31c0.735-5.234,5.021-8.714,7.892-8.714
		c0.905,0,1.669,0.347,2.137,1.093c0.312,0.498,0.427,1.145,0.327,1.854c-0.301,2.132-2.538,4.834-7.172,5.788
		c-0.484,4.964,1.951,7.123,5.483,7.123c3.435,0,8.15-2.141,13.453-7.362c1.371-1.349,2.128-1.945,2.552-1.945
		c0.212,0,0.288,0.14,0.256,0.373c-0.076,0.539-0.735,1.587-1.632,2.604c-5.247,5.946-10.894,8.499-15.325,8.499L394.101,69.901z
		 M389.883,58.261c2.354-0.175,3.87-1.9,4.032-3.05c0.082-0.59-0.191-1.029-0.894-1.029
		C391.874,54.181,390.543,56.062,389.883,58.261L389.883,58.261z"/>
	<path class="st0" d="M436.342,87.139c-2.528,0-2.921-4.145-3.007-8.082c-0.105-4.955,0.515-11.521,1.494-18.487
		c0.38-2.706,0.813-5.474,1.281-8.231c-2.476,6.243-7.125,14.605-13.597,14.605c-2.46,0-4.456-1.335-5.096-4.216
		c-0.128-0.586-0.24-0.854-0.956-0.307c-1.532,1.177-4.106,2.872-5.933,2.872c-0.48,0-0.909-0.117-1.255-0.392
		c-0.666-0.529-0.857-1.472-0.696-2.615c0.562-3.99,5.406-10.438,9.317-10.438c1.735,0,2.289,1.033,2.151,2.007
		c-0.15,1.081-1.151,2.088-2.33,1.531c-2.054-0.96-7.275,6.058-6.232,7.106c1.133,1.139,5.218-3.004,6.111-3.629
		c0.326-0.229,0.67-0.322,0.991-0.322c0.78,0,1.429,0.553,1.382,1.066c-0.029,0.318-0.166,0.61-0.279,0.918
		c-0.488,1.339,1.008,4.206,3.588,4.206c8.156,0,14.396-20.57,15.958-28.71c-4.23,0.725-7.89,1.382-10.033,1.531
		c-0.209,0.014-0.414,0.021-0.613,0.021c-1.7,0-2.944-0.634-2.711-2.297c0.105-0.748,0.617-1.009,1.229-1.009
		c1.338,0,1.819,0.535,3.018,0.497c0.351-0.011,4.416-0.65,9.675-1.35c0.034-0.16,2.094-9.426,2.733-11.483
		c0.644-2.067,1.563-4.106,2.984-4.64c0.869-0.327,1.039,0.486,0.839,1.913c-0.122,0.87-0.383,1.969-0.706,3.177
		c-0.315,1.174-0.696,2.45-1.142,4.034c-0.544,1.951-1.11,4.167-1.685,6.605c5.805-0.726,12.389-1.402,16.975-1.402
		c1.333,0,2.497,0.058,3.426,0.188c0.966,0.132,2.798,0.249,2.593,1.578c-0.108,0.695-0.678,0.885-1.325,0.885
		c-0.655,0-1.391-0.194-1.812-0.256c-1.223-0.183-2.601-0.263-4.084-0.263c-4.863,0-10.88,0.855-16.342,1.757
		c-1.545,6.896-3.069,15.036-4.151,22.735c-1.029,7.318-1.658,14.241-1.524,19.32c0.123,4.639,0.636,6.021,1.312,6.021
		c0.875,0,2.475-3.032,3.278-3.032c1.124,0-1.528,6.584-4.825,6.584L436.342,87.139z"/>
	<path class="st0" d="M455.623,69.901c-5.246,0-8.774-3.579-7.969-9.31c0.735-5.234,5.021-8.714,7.892-8.714
		c0.905,0,1.669,0.347,2.137,1.093c0.312,0.498,0.427,1.145,0.327,1.854c-0.301,2.132-2.538,4.834-7.172,5.788
		c-0.484,4.964,1.951,7.123,5.483,7.123c3.435,0,8.15-2.141,13.453-7.362c1.371-1.349,2.128-1.945,2.552-1.945
		c0.212,0,0.288,0.14,0.256,0.373c-0.076,0.539-0.735,1.587-1.632,2.604c-5.247,5.946-10.894,8.499-15.325,8.499L455.623,69.901z
		 M451.405,58.261c2.354-0.175,3.87-1.9,4.032-3.05c0.082-0.59-0.191-1.029-0.894-1.029
		C453.396,54.181,452.065,56.062,451.405,58.261L451.405,58.261z"/>
	<path class="st0" d="M472.088,84.323c-2.371,0-4.195-1.531-3.707-5.006c0.346-2.46,2.202-5.536,6.451-8.556
		c-1.938-3.552-4.428-7.387-3.729-12.361c0.776-5.523,6.046-8.858,9.623-8.858c2.341,0,3.798,1.506,3.538,3.357
		c-0.129,0.913-0.674,1.911-1.737,2.853c-0.63,0.559-1.124,0.814-1.428,0.814c-0.256,0-0.378-0.181-0.331-0.514
		c0.044-0.308,0.229-0.744,0.585-1.287c0.487-0.746,0.739-1.361,0.808-1.849c0.135-0.963-0.445-1.427-1.334-1.427
		c-1.962,0-5.426,2.261-6.01,6.417c-0.612,4.36,1.575,7.443,3.417,10.593c3.843-2.428,8.112-4.919,11.438-8.125
		c1.385-1.338,2.133-1.944,2.553-1.944c0.214,0,0.29,0.148,0.256,0.395c-0.078,0.553-0.716,1.6-1.635,2.579
		c-2.922,3.116-7.634,5.881-11.775,8.615c1.274,2.475,1.602,4.669,1.338,6.55c-0.674,4.799-5.027,7.753-8.322,7.753L472.088,84.323z
		 M472.753,82.54c1.629,0,3.612-1.496,4.039-4.532c0.211-1.501-0.039-3.369-1.114-5.608c-3.482,2.646-4.879,5.087-5.139,6.927
		c-0.3,2.132,0.829,3.212,2.214,3.212V82.54z"/>
	<path class="st0" d="M527.345,66.843c-3.543,0-5.764-2.161-6.411-4.114c-0.201-0.607-0.144-0.918-0.931-0.315
		c-1.533,1.177-4.107,2.873-5.935,2.873c-0.48,0-0.909-0.118-1.254-0.392c-0.667-0.53-0.858-1.472-0.696-2.616
		c0.56-3.99,5.404-10.439,9.315-10.439c1.737,0,2.291,1.033,2.153,2.007c-0.151,1.081-1.153,2.088-2.332,1.531
		c-2.054-0.96-7.274,6.058-6.231,7.106c1.133,1.14,5.219-3.004,6.111-3.629c0.326-0.229,0.67-0.322,0.991-0.322
		c0.78,0,1.43,0.553,1.384,1.066c-0.029,0.318-0.168,0.609-0.28,0.918c-0.505,1.386,1.017,4.115,4.627,4.115
		c4.651,0,9.386-4.339,10.924-5.603c0.812-0.665,1.355-0.942,1.641-0.942c0.184,0,0.26,0.115,0.231,0.316
		c-0.051,0.353-0.422,0.969-1.104,1.695c-2.938,3.159-7.785,6.746-12.204,6.746L527.345,66.843z"/>
</g>
</svg>
