<?xml version="1.0" encoding="utf-8"?>
<!-- Generator: Adobe Illustrator 22.1.0, SVG Export Plug-In . SVG Version: 6.00 Build 0)  -->
<svg version="1.1" id="レイヤー_1" xmlns="http://www.w3.org/2000/svg" xmlns:xlink="http://www.w3.org/1999/xlink" x="0px"
	 y="0px" viewBox="0 0 496 267" style="enable-background:new 0 0 496 267;" xml:space="preserve">
<style type="text/css">
	.st0{fill:#FFFFFF;}
</style>
<g>
	<g>
		<g>
			<path class="st0" d="M236.824,260.842c0.412-0.043,0.667-0.114,0.764-0.21c0.098-0.098,0.147-0.222,0.147-0.375v-12.169h-5.596
				c-0.174,0-0.304,0.06-0.39,0.179c-0.087,0.119-0.152,0.363-0.196,0.732h-0.39v-5.793h0.39c0.043,0.37,0.108,0.613,0.196,0.732
				c0.086,0.119,0.217,0.179,0.39,0.179h16.074c0.173,0,0.304-0.06,0.39-0.179s0.151-0.363,0.196-0.732h0.39V249h-0.39
				c-0.044-0.37-0.109-0.613-0.196-0.732c-0.087-0.119-0.217-0.179-0.39-0.179h-5.596v12.169c0,0.152,0.049,0.277,0.147,0.375
				c0.097,0.097,0.353,0.168,0.765,0.21v0.391h-6.703V260.842L236.824,260.842z"/>
			<path class="st0" d="M258.266,260.518c0,0.108,0.038,0.19,0.114,0.243c0.077,0.054,0.233,0.081,0.473,0.081v0.391h-5.759v-0.391
				c0.239-0.043,0.412-0.114,0.52-0.21c0.108-0.098,0.217-0.277,0.326-0.537c0.043-0.108,0.152-0.402,0.326-0.879
				c0.173-0.476,0.402-1.079,0.683-1.806c0.281-0.727,0.596-1.535,0.943-2.424c0.346-0.889,0.694-1.795,1.041-2.717
				c0.347-0.921,0.688-1.822,1.026-2.7c0.336-0.879,0.634-1.665,0.895-2.36c0.261-0.694,0.472-1.257,0.634-1.692
				c0.163-0.434,0.244-0.661,0.244-0.683c0-0.108-0.071-0.183-0.212-0.228c-0.141-0.043-0.288-0.077-0.439-0.098v-0.39h8.493v0.39
				c-0.173,0.021-0.314,0.055-0.423,0.098c-0.109,0.044-0.163,0.152-0.163,0.326c0,0.044,0.103,0.326,0.309,0.846
				c0.206,0.519,0.473,1.199,0.797,2.033c0.326,0.836,0.699,1.779,1.122,2.83c0.424,1.052,0.863,2.127,1.318,3.222
				c0.455,1.096,0.895,2.163,1.318,3.204c0.423,1.042,0.808,1.974,1.155,2.8c0.173,0.39,0.32,0.651,0.439,0.781
				c0.119,0.13,0.277,0.195,0.473,0.195v0.391h-6.41v-0.391c0.412-0.02,0.618-0.151,0.618-0.39c0-0.021-0.055-0.168-0.163-0.439
				c-0.108-0.27-0.228-0.575-0.357-0.911c-0.13-0.336-0.255-0.657-0.375-0.96c-0.119-0.303-0.19-0.509-0.212-0.617h-7.712
				c-0.217,0.586-0.39,1.062-0.52,1.43c-0.13,0.37-0.234,0.663-0.31,0.879c-0.077,0.217-0.13,0.375-0.163,0.473
				C258.283,260.404,258.266,260.473,258.266,260.518z M266.173,254.92l-3.156-7.744l-2.895,7.744H266.173z"/>
			<path class="st0" d="M280.295,245.093c0-0.151-0.049-0.276-0.147-0.374c-0.098-0.098-0.353-0.168-0.765-0.212v-0.39h12.397
				c0.889,0,1.702,0.087,2.44,0.26c0.737,0.174,1.377,0.439,1.92,0.796c0.542,0.357,0.964,0.825,1.268,1.399
				c0.304,0.574,0.456,1.263,0.456,2.065c0,0.977-0.293,1.763-0.879,2.36c-0.586,0.596-1.334,0.993-2.246,1.187v0.065
				c1.106,0.304,2.012,0.771,2.717,1.399c0.705,0.629,1.057,1.551,1.057,2.766c0,0.65-0.125,1.268-0.374,1.854
				c-0.25,0.587-0.64,1.096-1.171,1.53c-0.533,0.434-1.215,0.781-2.05,1.041c-0.836,0.261-1.829,0.391-2.978,0.391h-12.56v-0.391
				c0.412-0.043,0.667-0.114,0.765-0.21c0.098-0.098,0.147-0.222,0.147-0.375v-15.162H280.295z M289.601,250.561
				c0.694,0,1.268-0.016,1.724-0.05c0.455-0.033,0.813-0.102,1.073-0.212c0.261-0.107,0.445-0.26,0.553-0.455
				c0.108-0.195,0.163-0.455,0.163-0.781s-0.055-0.586-0.163-0.781c-0.108-0.196-0.292-0.347-0.553-0.455
				c-0.261-0.108-0.618-0.179-1.073-0.212c-0.456-0.033-1.03-0.048-1.724-0.048h-4.425v2.993L289.601,250.561L289.601,250.561z
				 M290.708,257.784c1.171,0,1.995-0.146,2.473-0.439c0.476-0.293,0.716-0.797,0.716-1.513c0-0.715-0.239-1.22-0.716-1.512
				c-0.477-0.293-1.302-0.439-2.473-0.439h-5.532v3.905L290.708,257.784L290.708,257.784z"/>
			<path class="st0" d="M321.618,257.263c0.173,0,0.304-0.058,0.39-0.178c0.086-0.119,0.151-0.363,0.196-0.732h0.39v5.63h-0.39
				c-0.044-0.348-0.109-0.559-0.196-0.634c-0.087-0.077-0.217-0.114-0.39-0.114h-16.985v-0.391c0.411-0.043,0.667-0.114,0.764-0.21
				c0.098-0.098,0.147-0.222,0.147-0.375v-15.164c0-0.151-0.049-0.276-0.147-0.374c-0.097-0.098-0.353-0.168-0.764-0.212v-0.39
				h6.702v0.39c-0.412,0.044-0.667,0.114-0.764,0.212c-0.098,0.098-0.147,0.222-0.147,0.374v12.169h11.193V257.263z"/>
			<path class="st0" d="M328.321,260.842c0.412-0.043,0.667-0.114,0.765-0.21c0.098-0.098,0.146-0.222,0.146-0.375v-15.164
				c0-0.151-0.048-0.276-0.146-0.374c-0.098-0.098-0.353-0.168-0.765-0.212v-0.39h6.703v0.39c-0.412,0.044-0.667,0.114-0.765,0.212
				c-0.098,0.098-0.146,0.222-0.146,0.374v15.164c0,0.152,0.048,0.277,0.146,0.375c0.098,0.097,0.353,0.168,0.765,0.21v0.391h-6.703
				V260.842z"/>
			<path class="st0" d="M355.067,254.986c-0.043-0.217-0.136-0.397-0.277-0.537c-0.141-0.141-0.375-0.212-0.7-0.212h-6.053v3.026
				h10.445c0.173,0,0.304-0.058,0.391-0.178c0.086-0.119,0.151-0.385,0.195-0.798h0.39v5.565h-0.39
				c-0.043-0.283-0.108-0.457-0.195-0.521c-0.087-0.065-0.218-0.098-0.391-0.098h-16.236v-0.391c0.411-0.043,0.667-0.114,0.764-0.21
				c0.098-0.098,0.147-0.222,0.147-0.375v-15.164c0-0.151-0.049-0.276-0.147-0.374c-0.097-0.098-0.353-0.168-0.764-0.212v-0.39
				h16.236c0.173,0,0.304-0.06,0.391-0.179c0.086-0.119,0.151-0.363,0.195-0.732h0.39v5.662h-0.39
				c-0.043-0.368-0.108-0.612-0.195-0.731c-0.087-0.119-0.218-0.179-0.391-0.179h-10.445v2.702h6.053c0.326,0,0.559-0.071,0.7-0.212
				c0.141-0.141,0.233-0.32,0.277-0.537h0.39v5.076L355.067,254.986L355.067,254.986z"/>
			<path class="st0" d="M371.369,260.257c0,0.152,0.049,0.277,0.147,0.375c0.097,0.097,0.353,0.168,0.764,0.21v0.391h-6.702v-0.391
				c0.411-0.043,0.667-0.114,0.764-0.21c0.098-0.098,0.147-0.222,0.147-0.375v-15.164c0-0.151-0.049-0.276-0.147-0.374
				c-0.097-0.098-0.353-0.168-0.764-0.212v-0.39h11.909c2.409,0,4.154,0.439,5.239,1.317c1.084,0.879,1.626,2.241,1.626,4.084
				c0,1.497-0.439,2.668-1.317,3.515c-0.879,0.846-1.991,1.453-3.335,1.822l3.84,5.402c0.26,0.391,0.574,0.586,0.944,0.586v0.391
				h-6.768v-0.391c0.476-0.02,0.715-0.216,0.715-0.586c0-0.043-0.086-0.196-0.26-0.455c-0.174-0.26-0.39-0.575-0.651-0.943
				c-0.261-0.37-0.548-0.765-0.863-1.188s-0.618-0.83-0.911-1.22c-0.292-0.391-0.548-0.738-0.765-1.042
				c-0.217-0.303-0.357-0.509-0.423-0.617h-3.189v5.466H371.369z M376.836,251.341c0.955,0,1.61-0.179,1.969-0.537
				s0.537-0.775,0.537-1.253c0-0.477-0.179-0.895-0.537-1.254c-0.357-0.357-1.014-0.537-1.969-0.537h-5.467v3.58H376.836z"/>
		</g>
		<g>
			<path class="st0" d="M102.777,260.537v-9.341h-1.994v-1.6h1.994v-0.576c0-0.412,0.009-0.762,0.027-1.05
				c0.017-0.288,0.052-0.582,0.102-0.88c0.05-0.299,0.121-0.546,0.213-0.746c0.092-0.199,0.214-0.395,0.363-0.587
				c0.15-0.192,0.334-0.347,0.555-0.464c0.22-0.118,0.483-0.222,0.789-0.314c0.306-0.092,0.657-0.158,1.055-0.196
				c0.399-0.039,0.849-0.058,1.354-0.058h0.543l-0.075,1.844c-0.412,0-0.748,0.011-1.008,0.033c-0.259,0.021-0.49,0.068-0.693,0.139
				c-0.202,0.071-0.356,0.152-0.458,0.245c-0.104,0.092-0.187,0.239-0.251,0.437c-0.063,0.199-0.104,0.407-0.117,0.624
				c-0.014,0.217-0.021,0.51-0.021,0.88v0.671h2.527v1.6h-2.527v9.341L102.777,260.537L102.777,260.537z"/>
			<path class="st0" d="M115.658,260.782c-0.917,0-1.743-0.149-2.479-0.448c-0.735-0.299-1.337-0.707-1.802-1.227
				c-0.466-0.519-0.821-1.121-1.066-1.807c-0.245-0.686-0.368-1.431-0.368-2.234c0-1.095,0.213-2.071,0.639-2.926
				c0.427-0.857,1.079-1.541,1.957-2.053c0.878-0.512,1.921-0.768,3.129-0.768c0.924,0,1.748,0.146,2.474,0.438
				c0.725,0.29,1.315,0.698,1.77,1.22c0.454,0.522,0.801,1.13,1.039,1.823c0.239,0.694,0.357,1.456,0.357,2.288
				c0,0.789-0.124,1.524-0.368,2.207c-0.245,0.681-0.597,1.284-1.055,1.807c-0.459,0.522-1.052,0.934-1.781,1.233
				C117.376,260.634,116.56,260.782,115.658,260.782z M115.647,258.841c1.052,0,1.843-0.351,2.373-1.055
				c0.529-0.704,0.795-1.614,0.795-2.73c0-1.13-0.27-2.046-0.81-2.751c-0.541-0.703-1.329-1.055-2.367-1.055
				s-1.831,0.353-2.378,1.055c-0.548,0.704-0.821,1.621-0.821,2.751c0,1.116,0.27,2.026,0.81,2.73
				C113.788,258.49,114.587,258.841,115.647,258.841z"/>
			<path class="st0" d="M129.679,260.782c-0.917,0-1.743-0.149-2.479-0.448c-0.735-0.299-1.337-0.707-1.802-1.227
				c-0.466-0.519-0.821-1.121-1.066-1.807c-0.245-0.686-0.368-1.431-0.368-2.234c0-1.095,0.213-2.071,0.639-2.926
				c0.427-0.857,1.079-1.541,1.957-2.053c0.878-0.512,1.921-0.768,3.129-0.768c0.924,0,1.748,0.146,2.474,0.438
				c0.725,0.29,1.315,0.698,1.77,1.22c0.454,0.522,0.801,1.13,1.039,1.823c0.239,0.694,0.357,1.456,0.357,2.288
				c0,0.789-0.124,1.524-0.368,2.207c-0.245,0.681-0.597,1.284-1.055,1.807c-0.458,0.522-1.052,0.934-1.781,1.233
				C131.397,260.634,130.581,260.782,129.679,260.782z M129.668,258.841c1.052,0,1.843-0.351,2.373-1.055
				c0.529-0.704,0.795-1.614,0.795-2.73c0-1.13-0.27-2.046-0.81-2.751c-0.541-0.703-1.329-1.055-2.367-1.055
				c-1.038,0-1.831,0.353-2.378,1.055c-0.548,0.704-0.821,1.621-0.821,2.751c0,1.116,0.27,2.026,0.81,2.73
				C127.809,258.49,128.608,258.841,129.668,258.841z"/>
			<path class="st0" d="M142.996,260.782c-1.443,0-2.64-0.517-3.588-1.551s-1.423-2.404-1.423-4.111c0-0.81,0.114-1.564,0.341-2.261
				c0.228-0.697,0.553-1.31,0.976-1.839c0.424-0.529,0.965-0.946,1.626-1.248c0.661-0.301,1.404-0.452,2.228-0.452
				c0.781,0,1.455,0.168,2.02,0.501c0.565,0.335,0.951,0.701,1.157,1.098v-6.046h2.388v12.786c0,0.327,0.025,1.286,0.075,2.878
				h-2.432l-0.021-1.567c-0.193,0.454-0.575,0.87-1.146,1.247C144.626,260.593,143.892,260.782,142.996,260.782z M143.433,258.841
				c0.981,0,1.72-0.354,2.218-1.061c0.497-0.707,0.746-1.63,0.746-2.767c0-1.101-0.252-2.004-0.757-2.709
				c-0.505-0.703-1.234-1.055-2.186-1.055c-0.959,0-1.695,0.353-2.207,1.055c-0.512,0.704-0.768,1.621-0.768,2.751
				c0,1.116,0.248,2.026,0.746,2.73C141.723,258.49,142.459,258.841,143.433,258.841z"/>
			<path class="st0" d="M163.575,260.782c-0.917,0-1.743-0.149-2.48-0.448c-0.735-0.299-1.337-0.707-1.802-1.227
				c-0.466-0.519-0.821-1.121-1.066-1.807c-0.245-0.686-0.368-1.431-0.368-2.234c0-1.095,0.213-2.071,0.639-2.926
				c0.427-0.857,1.079-1.541,1.957-2.053s1.921-0.768,3.129-0.768c0.924,0,1.748,0.146,2.474,0.438
				c0.725,0.29,1.315,0.698,1.77,1.22c0.454,0.522,0.801,1.13,1.039,1.823c0.239,0.694,0.357,1.456,0.357,2.288
				c0,0.789-0.124,1.524-0.368,2.207c-0.245,0.681-0.597,1.284-1.055,1.807c-0.459,0.522-1.052,0.934-1.781,1.233
				C165.293,260.634,164.478,260.782,163.575,260.782z M163.564,258.841c1.052,0,1.843-0.351,2.373-1.055
				c0.529-0.704,0.795-1.614,0.795-2.73c0-1.13-0.27-2.046-0.81-2.751c-0.541-0.703-1.329-1.055-2.367-1.055
				s-1.831,0.353-2.378,1.055c-0.548,0.704-0.821,1.621-0.821,2.751c0,1.116,0.27,2.026,0.81,2.73
				C161.705,258.49,162.505,258.841,163.564,258.841z"/>
			<path class="st0" d="M173.513,260.537v-9.341h-1.994v-1.6h1.994v-0.576c0-0.412,0.009-0.762,0.027-1.05
				c0.017-0.288,0.052-0.582,0.102-0.88c0.05-0.299,0.121-0.546,0.213-0.746c0.092-0.199,0.214-0.395,0.363-0.587
				c0.15-0.192,0.335-0.347,0.555-0.464c0.22-0.118,0.483-0.222,0.789-0.314c0.306-0.092,0.658-0.158,1.055-0.196
				c0.399-0.039,0.849-0.058,1.354-0.058h0.543l-0.075,1.844c-0.412,0-0.748,0.011-1.008,0.033c-0.259,0.021-0.49,0.068-0.693,0.139
				c-0.202,0.071-0.356,0.152-0.458,0.245c-0.104,0.092-0.187,0.239-0.251,0.437c-0.063,0.199-0.104,0.407-0.117,0.624
				c-0.013,0.217-0.021,0.51-0.021,0.88v0.671h2.526v1.6h-2.527v9.341L173.513,260.537L173.513,260.537z"/>
			<path class="st0" d="M182.31,260.537v-9.341h-1.994v-1.6h1.994v-0.576c0-0.412,0.009-0.762,0.027-1.05
				c0.017-0.288,0.052-0.582,0.102-0.88c0.05-0.299,0.121-0.546,0.213-0.746c0.092-0.199,0.214-0.395,0.363-0.587
				c0.15-0.192,0.335-0.347,0.555-0.464c0.22-0.118,0.483-0.222,0.789-0.314c0.306-0.092,0.658-0.158,1.055-0.196
				c0.399-0.039,0.849-0.058,1.354-0.058h0.543l-0.075,1.844c-0.412,0-0.748,0.011-1.008,0.033c-0.259,0.021-0.49,0.068-0.693,0.139
				c-0.202,0.071-0.356,0.152-0.458,0.245c-0.104,0.092-0.187,0.239-0.251,0.437c-0.063,0.199-0.104,0.407-0.117,0.624
				c-0.014,0.217-0.021,0.51-0.021,0.88v0.671h2.527v1.6h-2.527v9.341L182.31,260.537L182.31,260.537z"/>
			<path class="st0" d="M187.856,260.537v-10.941h2.335v10.941H187.856z M187.867,247.144v-2.133h2.324v2.133H187.867z"/>
			<path class="st0" d="M198.987,260.782c-1.151,0-2.16-0.257-3.028-0.773c-0.867-0.516-1.522-1.2-1.962-2.053
				c-0.441-0.852-0.661-1.806-0.661-2.857c0-1.109,0.229-2.1,0.688-2.975c0.458-0.875,1.119-1.56,1.983-2.059
				c0.864-0.496,1.861-0.746,2.991-0.746c1.628,0,2.894,0.469,3.796,1.408l-0.842,1.557c-0.774-0.681-1.689-1.024-2.74-1.024
				c-1.046,0-1.871,0.337-2.48,1.012c-0.608,0.677-0.911,1.614-0.911,2.815c0,1.137,0.306,2.046,0.917,2.73
				c0.611,0.681,1.443,1.024,2.495,1.024c0.98,0,1.923-0.337,2.825-1.012l0.736,1.749
				C201.67,260.38,200.402,260.782,198.987,260.782z"/>
			<path class="st0" d="M211.036,260.782c-1.791,0-3.209-0.522-4.255-1.567c-1.045-1.045-1.567-2.424-1.567-4.138
				c0-1.059,0.217-2.022,0.65-2.889c0.433-0.868,1.073-1.563,1.92-2.086c0.846-0.522,1.824-0.784,2.933-0.784
				c0.817,0,1.54,0.145,2.17,0.432c0.629,0.287,1.134,0.688,1.514,1.204c0.38,0.516,0.666,1.109,0.858,1.782
				c0.193,0.671,0.288,1.412,0.288,2.222c0,0.15-0.017,0.313-0.053,0.492h-7.784c0.042,1.122,0.38,1.969,1.012,2.537
				c0.633,0.569,1.464,0.853,2.496,0.853c1.244,0,2.388-0.398,3.433-1.193l0.672,1.748
				C214.093,260.32,212.663,260.782,211.036,260.782z M207.762,253.841h5.652c-0.092-0.862-0.368-1.519-0.826-1.972
				c-0.459-0.455-1.047-0.683-1.764-0.683c-0.803,0-1.473,0.235-2.011,0.704C208.276,252.358,207.926,253.009,207.762,253.841z"/>
		</g>
	</g>
</g>
<g>
	<path class="st0" d="M52.928,105.316c-0.526,0-1.371-0.393-2.328-1.207c-10.082-8.501-11.525-28.439-10.051-47.67
		c-2.02-0.32-3.992-0.47-5.905-0.47c-3.204,0-6.241,0.419-9.051,1.162c-2.725,6.444-9.74,26.643-17.328,26.643
		c-3.056,0-4.778-3.938-4.068-8.988C5.17,67.852,10.729,58.82,23.714,55c7.688-18.143,18.679-41.514,24.648-41.514
		c1.713,0,1.713,2.79,1.305,5.698c-0.63,4.479-2.378,13.059-3.808,23.237c-0.57,4.051-1.089,8.357-1.467,12.756
		c2.384,0.731,4.772,1.72,7.131,3.008c0.452,0.247,0.616,0.582,0.577,0.864c-0.061,0.428-0.59,0.733-1.295,0.423
		c-2.225-0.97-4.421-1.713-6.576-2.266c-1.292,17.13-0.314,35.321,8.068,45.357c0.914,1.097,1.252,1.879,1.189,2.323
		c-0.04,0.283-0.242,0.427-0.562,0.427L52.928,105.316z M22.385,58.141c-10.99,4.12-15.269,11.832-16.041,17.328
		c-0.512,3.646,0.519,6.318,2.157,6.318C13.631,81.787,20.346,63.027,22.385,58.141z M40.727,54.254
		c0.347-3.941,0.808-7.833,1.333-11.57c0.898-6.385,1.983-12.318,3.01-17.27c0.283-1.363,0.501-2.562,0.642-3.567
		c0.314-2.236,0.247-3.511-0.333-3.511c-0.739,0-2.314,2.078-4.992,6.885c-3.962,7.107-9.144,18.656-13.567,29.015
		c2.213-0.437,4.516-0.67,6.877-0.67c2.301,0,4.657,0.222,7.034,0.691L40.727,54.254z"/>
	<path class="st0" d="M75.85,71.612c0.222-1.573,0.636-3.449,1.312-5.649c0.531-9.451,1.189-21.85,2.792-33.248
		c0.658-4.683,1.476-9.196,2.508-13.268c2.606-10.275,6.828-15.266,9.995-15.266c3.039,0,5.107,4.59,3.853,13.515
		c-0.177,1.259-0.42,2.604-0.736,4.035c-2.582,11.691-7.649,23.994-14.748,33.894c-0.126,1.625-0.248,3.203-0.366,4.691
		c2.579-4.012,6.098-8.077,8.746-8.077c0.415,0,0.808,0.1,1.172,0.315c0.692,0.408,0.953,1.18,0.815,2.161
		c-0.414,2.939-4.398,7.76-11.08,10.335c1.337,2.725,3.757,6.262,6.994,6.262c4.805,0,11.473-7.22,14.796-11.162
		c2.191-2.597,3.648-4.34,4.261-4.34c1.04,0-1.583,3.772-3.282,5.823c-3.842,4.639-10.87,12.219-16.335,12.219
		c-3.037,0-5.367-2.411-6.887-4.811c-0.622,5.568-1.366,9.155-2.511,9.155C76.197,78.196,75.208,76.181,75.85,71.612z
		 M81.088,52.192c5.62-8.458,10.12-20.457,12.216-30.241c0.385-1.799,0.676-3.433,0.884-4.907c1.04-7.399-0.027-10.785-1.831-10.785
		c-2.142,0-5.323,4.771-7.253,13.258c-0.644,2.83-1.197,6.053-1.679,9.487c-1.035,7.365-1.746,15.697-2.334,23.188H81.088z
		 M81.73,62.203c2.825-0.652,8.341-6.597,7.301-7.739C87.935,53.262,82.464,60.374,81.73,62.203L81.73,62.203z"/>
	<path class="st0" d="M107.963,70.47c-3.222,0-5.207-2.816-4.44-8.27c0.168-1.19,0.962-6.125,2.5-6.654
		c0.222-0.077,0.418-0.113,0.588-0.113c1.123,0,1.169,1.55,0.954,3.086c-0.173,1.231-0.515,2.453-0.605,2.86
		c-0.143,0.641-0.252,1.232-0.33,1.776c-0.469,3.341,0.292,4.887,1.936,4.887c3.588,0,9.667-6.654,12.136-9.8
		c0.958-1.222,1.645-2.088,2.079-2.088c0.256,0,0.348,0.167,0.308,0.46c-0.073,0.521-0.565,1.442-1.301,2.55
		c-2.607,3.925-8.968,11.307-13.824,11.307L107.963,70.47z M108.374,49.309c-0.601,0-1.076-0.573-0.95-1.464
		c0.067-0.48,0.309-1.052,0.797-1.676c0.392-0.5,0.825-0.74,1.186-0.74c0.528,0,0.901,0.511,0.768,1.466
		c-0.242,1.721-1.138,2.413-1.798,2.413H108.374z"/>
	<path class="st0" d="M122.746,65.565c-0.997,0-1.598-0.441-1.565-1.837c0.026-1.105,0.696-8.037,0.696-8.037
		c0.04-1.582-0.417-1.698,0.027-3.107c0.199-0.64,0.82-1.289,1.601-1.289c1.414,0,1.391,2.513,1.244,4.109
		c-0.124,1.35-0.364,3.529-0.413,3.993c-0.183,1.758-0.18,2.55,0.1,2.55c0.341,0,1.093-1.176,2.421-3.212
		c1.207-1.852,2.217-2.5,3.069-2.5c0.999,0,1.777,0.895,2.39,1.787c1.415,2.059,2.778,3.405,4.737,3.405
		c1.968,0,4.537-1.359,8.364-4.72c0.847-0.738,1.388-1.027,1.678-1.027c0.213,0,0.291,0.156,0.256,0.405
		c-0.057,0.406-0.417,1.061-0.984,1.686c-1.119,1.233-2.392,2.365-3.727,3.297c-2.242,1.566-4.535,2.542-6.588,2.542
		c-1.777,0-3.374-0.731-4.603-2.443c-0.924-1.292-1.458-1.966-1.97-1.966c-0.46,0-0.902,0.542-1.597,1.667
		c-0.992,1.608-2.772,4.432-4.571,4.656c-0.202,0.026-0.391,0.04-0.568,0.04L122.746,65.565z"/>
	<path class="st0" d="M162.579,81.437c-0.699,0.652-3.17-0.372-3.983-4.666c-1.104-5.852-0.923-13.632,0.068-21.916
		c-2.252,3.529-6.594,9.679-10.557,9.679c-2.648,0-3.738-2.661-3.323-5.623c0.458-3.255,2.733-6.873,6.758-7.722
		c0.34-0.072,0.669-0.108,0.981-0.108c1.422,0,2.476,0.748,2.476,2.256c0,0.088-0.006,0.174-0.018,0.255
		c-0.112,0.791-0.735,1.233-1.298,1.233c-0.868,0-0.441-1.116-1.674-1.116c-2.273,0-3.912,2.991-4.25,5.4
		c-0.228,1.625,0.135,2.984,1.294,2.984c3.104,0,8.727-9.696,10.342-12.576c2.063-13.235,5.886-26.97,9.658-35.713
		c2.708-6.278,5.342-9.416,6.88-9.416c1.146,0,1.685,1.74,1.196,5.218c-0.188,1.335-0.526,2.927-1.041,4.774
		c-2.373,8.524-7.394,22.37-13.715,34.103c-1.559,10.006-2.121,19.542-0.668,26.691c0.761,3.762,1.949,5.259,0.871,6.263
		L162.579,81.437z M163.65,41.267c4.403-9.266,8.152-19.376,10.425-27.169c0.675-2.286,1.076-4.012,1.238-5.165
		c0.161-1.148,0.085-1.728-0.191-1.728c-0.531,0-1.806,2.15-3.57,6.542c-2.509,6.248-5.653,16.094-7.904,27.521L163.65,41.267z"/>
	<path class="st0" d="M193.473,82.536c-2.355,0-2.721-3.861-2.8-7.527c-0.098-4.619,0.479-10.736,1.393-17.229
		c0.583-4.138,2.364-14.157,4.141-22.857c-3.96,0.679-7.38,1.293-9.384,1.432c-0.195,0.013-0.386,0.02-0.571,0.02
		c-1.583,0-2.741-0.593-2.523-2.142c0.098-0.695,0.574-0.938,1.142-0.938c1.246,0,1.695,0.498,2.811,0.462
		c0.327-0.011,4.121-0.608,9.03-1.26c0.951-4.521,1.869-8.46,2.563-10.689c0.6-1.925,1.457-3.824,2.78-4.32
		c0.81-0.304,0.968,0.454,0.782,1.783c-0.15,1.067-0.523,2.501-0.96,4.052c-0.842,2.981-1.608,5.918-2.307,8.809
		c5.391-0.672,11.493-1.297,15.75-1.297c1.243,0,2.328,0.054,3.192,0.175c0.9,0.123,2.606,0.231,2.415,1.469
		c-0.101,0.647-0.632,0.825-1.235,0.825c-0.61,0-1.295-0.181-1.686-0.239c-1.138-0.17-2.421-0.245-3.805-0.245
		c-4.518,0-10.102,0.792-15.178,1.629c-1.681,7.271-2.931,14.232-3.858,20.824c-0.973,6.92-1.595,13.525-1.468,18.349
		c0.116,4.319,0.593,5.606,1.222,5.606c0.816,0,2.306-2.823,3.054-2.823c1.047,0-1.424,6.131-4.494,6.131H193.473z"/>
	<path class="st0" d="M217.733,63.638c-3.299,0-5.368-2.012-5.971-3.832c-0.188-0.566-0.134-0.854-0.867-0.293
		c-1.428,1.096-3.825,2.675-5.527,2.675c-0.447,0-0.847-0.11-1.168-0.365c-0.621-0.494-0.799-1.371-0.648-2.436
		c0.521-3.716,5.033-9.722,8.676-9.722c1.618,0,2.133,0.962,2.005,1.869c-0.141,1.006-1.074,1.945-2.172,1.425
		c-1.912-0.895-6.774,5.641-5.803,6.618c1.055,1.061,4.86-2.797,5.691-3.38c0.304-0.213,0.624-0.3,0.923-0.3
		c0.727,0,1.331,0.515,1.288,0.994c-0.027,0.297-0.156,0.567-0.261,0.854c-0.471,1.291,0.947,3.833,4.309,3.833
		c4.332,0,8.741-4.041,10.174-5.217c0.755-0.619,1.262-0.878,1.528-0.878c0.171,0,0.242,0.107,0.215,0.295
		c-0.047,0.328-0.393,0.902-1.028,1.579c-2.735,2.941-7.25,6.283-11.366,6.283L217.733,63.638z"/>
	<path class="st0" d="M230.266,75.344c-2.129,0.023-1.841-4.344-1.814-8.066c0.07-8.885,0.111-19.016,1.521-29.052
		c1.234-8.788,3.519-17.503,7.794-25.248c1.809-3.279,3.944-5.06,5.596-5.06c2.016,0,3.229,2.654,2.414,8.448
		c-1.579,11.24-9.076,30.143-13.95,38.039c-0.136,4.757-0.023,8.677,0.209,11.03c3.868-7.703,8.318-10.764,11.18-10.764
		c2.326,0,3.216,1.65,2.894,3.949c-0.482,3.431-3.668,8.306-8.823,11.294c-0.815,0.473-1.875,1.097-2.603,1.097
		c-0.352,0-0.627-0.147-0.758-0.528c-0.057-0.167-0.072-0.319-0.052-0.461c0.116-0.823,1.435-1.279,2.723-1.938
		c3.5-1.797,7.008-6.812,7.385-9.5c0.148-1.056-0.188-1.752-1.197-1.752c-1.83,0-5.425,2.894-8.641,9.717
		c-2.91,6.17-1.562,8.767-3.881,8.792L230.266,75.344z M231.98,50.682c4.76-9.207,10.458-26.728,11.679-35.422
		c0.483-3.442,0.178-5.153-0.649-5.153c-0.723,0-1.846,1.311-3.188,3.918c-3.36,6.528-5.415,15.217-6.607,23.706
		C232.583,42.22,232.194,46.654,231.98,50.682L231.98,50.682z"/>
	<path class="st0" d="M253.73,91.193c-0.721,0.854-2.781-0.956-3.471-6.521c-1.224-9.869-0.619-22.189,1.056-34.107
		c2.168-15.429,6.131-30.183,10.248-38.064c1.97-3.773,4.165-5.95,5.704-5.95c1.566,0,2.444,2.257,1.724,7.389
		c-1.431,10.176-8.215,28.669-15.295,40.621c-1.513,12.291-1.486,22.28-0.653,28.51c0.505,3.79,1.309,5.801,1.122,7.126
		c-0.054,0.38-0.188,0.704-0.436,0.996L253.73,91.193z M254.321,49.948c5.943-11.866,11.048-27.572,12.53-35.604
		c0.092-0.498,0.168-0.958,0.227-1.38c0.377-2.671,0.125-3.878-0.48-3.878c-0.688,0-1.832,1.554-3.035,4.281
		C260.313,20.735,256.34,36.358,254.321,49.948L254.321,49.948z"/>
	<path class="st0" d="M271.114,66.486c-4.887,0-8.172-3.333-7.422-8.67c0.685-4.874,4.677-8.114,7.35-8.114
		c0.843,0,1.555,0.322,1.99,1.018c0.29,0.463,0.396,1.065,0.304,1.726c-0.279,1.985-2.363,4.502-6.679,5.391
		c-0.451,4.622,1.816,6.633,5.106,6.633c3.199,0,7.591-1.994,12.529-6.857c1.276-1.255,1.981-1.811,2.376-1.811
		c0.198,0,0.269,0.129,0.238,0.347c-0.07,0.502-0.685,1.478-1.52,2.425c-4.887,5.537-10.146,7.915-14.272,7.915L271.114,66.486z
		 M267.186,55.646c2.192-0.163,3.604-1.769,3.755-2.84c0.077-0.55-0.179-0.958-0.832-0.958
		C269.04,51.847,267.801,53.598,267.186,55.646L267.186,55.646z"/>
	<path class="st0" d="M311.056,69.98c-4.734,0-6.414-4.548-5.764-9.171c0.906-6.446,6.608-12.689,10.592-12.689
		c1.677,0,2.747,1.226,2.365,3.939c-0.296,2.109-1.204,2.867-1.966,2.867c-0.785,0-1.415-0.804-1.062-1.764
		c0.141-0.382,0.285-0.87,0.35-1.323c0.099-0.703,0.002-1.322-0.609-1.322c-2.142,0-5.828,6.06-6.503,10.861
		c-0.445,3.171,0.411,5.69,3.447,5.69c5.074,0,11.199-6.504,14.652-9.938c0.392-0.39,1.88-1.95,2.354-1.595
		c0.139,0.104,0.179,0.266,0.151,0.46c-0.099,0.707-1.079,1.838-1.353,2.148c-4.032,4.563-10.345,11.834-16.655,11.834V69.98z"/>
	<path class="st0" d="M328.033,70.364c-2.06-0.096-1.357-2.639-1.238-4.502c0.13-2.045,0.482-10.324,0.663-11.604
		c0.323-2.297,1.304-3.808,2.68-4.485c0.32-0.157,0.587-0.227,0.806-0.227c0.833,0,0.966,1.008,0.698,2.011
		c-0.408,1.528-0.62,2.597-0.771,3.673c-0.124,0.889-0.208,1.782-0.326,2.943c-0.149,1.486-0.258,2.279-0.094,2.279
		c0.159,0,0.575-0.75,1.46-2.34c4.43-7.974,9.269-10.296,11.942-10.296c0.92,0,1.584,0.275,1.887,0.689
		c0.271,0.37,0.372,0.914,0.303,1.404c-0.086,0.61-0.435,1.135-1.04,1.135c-0.288,0-0.636-0.119-1.041-0.405
		c-1.846-1.302-10.021,4.585-13.775,16.086c-0.656,2.019-0.723,3.704-2.152,3.638V70.364z"/>
	<path class="st0" d="M355.187,66.486c-4.887,0-8.172-3.333-7.422-8.67c0.685-4.874,4.677-8.114,7.35-8.114
		c0.843,0,1.555,0.322,1.99,1.018c0.29,0.463,0.396,1.065,0.304,1.726c-0.279,1.985-2.363,4.502-6.679,5.391
		c-0.451,4.622,1.816,6.633,5.106,6.633c3.199,0,7.591-1.994,12.529-6.857c1.276-1.255,1.981-1.811,2.376-1.811
		c0.198,0,0.269,0.129,0.238,0.347c-0.07,0.502-0.685,1.478-1.52,2.425c-4.887,5.537-10.146,7.915-14.272,7.915L355.187,66.486z
		 M351.258,55.646c2.192-0.163,3.604-1.769,3.755-2.84c0.077-0.55-0.179-0.958-0.832-0.958
		C353.112,51.847,351.873,53.598,351.258,55.646L351.258,55.646z"/>
	<path class="st0" d="M394.523,82.54c-2.354,0-2.72-3.86-2.8-7.526c-0.099-4.615,0.479-10.729,1.392-17.218
		c0.354-2.52,0.758-5.097,1.193-7.665c-2.306,5.813-6.636,13.602-12.663,13.602c-2.291,0-4.149-1.244-4.746-3.927
		c-0.118-0.545-0.224-0.795-0.89-0.285c-1.428,1.096-3.824,2.675-5.525,2.675c-0.447,0-0.847-0.109-1.168-0.365
		c-0.621-0.494-0.799-1.371-0.649-2.436c0.523-3.716,5.035-9.721,8.678-9.721c1.616,0,2.132,0.962,2.004,1.869
		c-0.141,1.006-1.072,1.945-2.171,1.425c-1.912-0.894-6.775,5.641-5.804,6.618c1.055,1.061,4.859-2.797,5.691-3.379
		c0.304-0.213,0.624-0.3,0.923-0.3c0.727,0,1.331,0.515,1.287,0.993c-0.027,0.297-0.155,0.568-0.26,0.855
		c-0.455,1.247,0.938,3.917,3.341,3.917c7.597,0,13.407-19.157,14.862-26.738c-3.939,0.676-7.349,1.287-9.345,1.426
		c-0.194,0.013-0.385,0.02-0.57,0.02c-1.584,0-2.742-0.59-2.524-2.139c0.098-0.696,0.574-0.94,1.144-0.94
		c1.246,0,1.694,0.499,2.81,0.462c0.327-0.01,4.113-0.605,9.011-1.256c0.032-0.149,1.95-8.778,2.545-10.694
		c0.6-1.925,1.457-3.824,2.78-4.322c0.81-0.304,0.968,0.453,0.781,1.782c-0.114,0.81-0.356,1.834-0.658,2.959
		c-0.293,1.093-0.648,2.281-1.063,3.757c-0.506,1.816-1.033,3.881-1.568,6.151c5.406-0.675,11.537-1.305,15.809-1.305
		c1.242,0,2.326,0.054,3.19,0.175c0.899,0.123,2.605,0.231,2.415,1.469c-0.102,0.647-0.631,0.825-1.234,0.825
		c-0.61,0-1.295-0.181-1.688-0.239c-1.138-0.17-2.421-0.245-3.804-0.245c-4.528,0-10.132,0.797-15.218,1.636
		c-1.439,6.422-2.859,14.002-3.866,21.173c-0.959,6.816-1.545,13.263-1.42,17.993c0.114,4.319,0.592,5.606,1.222,5.606
		c0.815,0,2.305-2.823,3.054-2.823c1.047,0-1.424,6.131-4.494,6.131L394.523,82.54z"/>
	<path class="st0" d="M412.479,66.486c-4.887,0-8.172-3.333-7.422-8.67c0.685-4.874,4.677-8.114,7.35-8.114
		c0.843,0,1.555,0.322,1.99,1.018c0.29,0.463,0.396,1.065,0.304,1.726c-0.279,1.985-2.363,4.502-6.679,5.391
		c-0.451,4.622,1.816,6.633,5.106,6.633c3.199,0,7.591-1.994,12.529-6.857c1.276-1.255,1.981-1.811,2.376-1.811
		c0.198,0,0.269,0.129,0.238,0.347c-0.07,0.502-0.685,1.478-1.52,2.425c-4.887,5.537-10.146,7.915-14.272,7.915L412.479,66.486z
		 M408.55,55.646c2.192-0.163,3.604-1.769,3.755-2.84c0.077-0.55-0.179-0.958-0.831-0.958
		C410.404,51.847,409.165,53.598,408.55,55.646L408.55,55.646z"/>
	<path class="st0" d="M427.81,79.917c-2.208,0-3.907-1.425-3.451-4.662c0.321-2.291,2.051-5.156,6.008-7.968
		c-1.806-3.307-4.124-6.879-3.473-11.511c0.723-5.144,5.631-8.25,8.962-8.25c2.181,0,3.537,1.402,3.295,3.127
		c-0.12,0.85-0.628,1.779-1.618,2.656c-0.587,0.521-1.047,0.758-1.329,0.758c-0.239,0-0.353-0.169-0.309-0.479
		c0.04-0.287,0.214-0.693,0.545-1.198c0.454-0.695,0.688-1.269,0.752-1.723c0.126-0.896-0.414-1.329-1.242-1.329
		c-1.827,0-5.054,2.105-5.597,5.977c-0.571,4.061,1.467,6.931,3.183,9.865c3.578-2.262,7.554-4.582,10.65-7.567
		c1.29-1.246,1.987-1.811,2.378-1.811c0.199,0,0.271,0.138,0.238,0.368c-0.072,0.515-0.667,1.49-1.522,2.401
		c-2.722,2.902-7.109,5.477-10.967,8.024c1.187,2.305,1.492,4.348,1.246,6.1c-0.628,4.469-4.682,7.22-7.75,7.22L427.81,79.917z
		 M428.43,78.256c1.518,0,3.364-1.393,3.761-4.22c0.197-1.397-0.035-3.138-1.037-5.223c-3.243,2.464-4.544,4.737-4.785,6.45
		c-0.279,1.986,0.772,2.992,2.062,2.992V78.256z"/>
	<path class="st0" d="M479.268,63.638c-3.3,0-5.367-2.012-5.971-3.832c-0.188-0.566-0.134-0.854-0.866-0.293
		c-1.428,1.096-3.826,2.675-5.527,2.675c-0.447,0-0.847-0.11-1.168-0.365c-0.621-0.494-0.799-1.371-0.648-2.436
		c0.521-3.716,5.033-9.722,8.676-9.722c1.617,0,2.134,0.962,2.005,1.869c-0.141,1.006-1.073,1.945-2.172,1.425
		c-1.912-0.895-6.773,5.641-5.803,6.618c1.056,1.061,4.859-2.797,5.691-3.38c0.304-0.213,0.624-0.3,0.924-0.3
		c0.727,0,1.331,0.515,1.287,0.994c-0.026,0.297-0.155,0.567-0.261,0.854c-0.47,1.291,0.947,3.833,4.31,3.833
		c4.332,0,8.74-4.041,10.173-5.217c0.756-0.619,1.263-0.878,1.528-0.878c0.171,0,0.242,0.107,0.215,0.295
		c-0.046,0.328-0.392,0.902-1.028,1.579c-2.735,2.941-7.25,6.283-11.365,6.283L479.268,63.638z"/>
	<path class="st0" d="M15.744,166.859c-1.237,0-1.979-2.124-2.304-5.569c-0.432-4.579,0.072-14.898,1.514-25.156
		c1.897-13.5,5.417-26.895,10.563-26.954c3.179-0.036,3.915,3.939,3.106,9.697c-1.281,9.122-6.442,22.714-11.914,31.9
		c-0.078,1.14-0.332,4.496-0.366,7.048c-0.029,2.229,0.064,3.125,0.375,3.125c0.361,0,1.017-1.216,2.119-2.962
		c2.048-3.248,3.761-4.315,5.183-4.315c3.315,0,4.914,5.689,7.718,5.689c2.587,0,7.42-4.659,9.412-6.618
		c1.155-1.137,1.834-1.661,2.244-1.661c0.274,0,0.375,0.164,0.336,0.44c-0.073,0.521-0.646,1.441-1.496,2.405
		c-2.244,2.547-8.045,7.95-11.293,7.95c-1.688,0-2.952-1.355-4.105-2.739c-1.351-1.62-2.131-2.666-2.932-2.666
		c-0.82,0-1.661,1.094-3.156,3.784c-1.67,3.006-3.305,6.602-5.006,6.602L15.744,166.859z M17.014,146.891
		c4.772-9.24,8.443-20.994,9.49-28.439c0.616-4.387,0.321-7.277-1.196-7.277c-2.912,0-5.417,12.683-6.904,23.266
		c-0.743,5.291-1.232,10.057-1.39,12.452V146.891z"/>
	<path class="st0" d="M55.002,158.993c-3.299,0-5.368-2.013-5.971-3.831c-0.188-0.566-0.134-0.855-0.867-0.294
		c-1.428,1.096-3.825,2.675-5.527,2.675c-0.447,0-0.847-0.109-1.168-0.364c-0.621-0.494-0.799-1.371-0.648-2.437
		c0.521-3.716,5.033-9.722,8.676-9.722c1.618,0,2.133,0.962,2.005,1.869c-0.141,1.007-1.074,1.945-2.172,1.426
		c-1.912-0.895-6.774,5.641-5.803,6.618c1.055,1.061,4.86-2.798,5.691-3.38c0.304-0.213,0.624-0.3,0.923-0.3
		c0.727,0,1.331,0.515,1.288,0.993c-0.027,0.297-0.156,0.567-0.261,0.854c-0.471,1.29,0.947,3.833,4.309,3.833
		c4.332,0,8.741-4.041,10.174-5.218c0.755-0.619,1.262-0.878,1.528-0.878c0.171,0,0.242,0.107,0.215,0.295
		c-0.047,0.328-0.393,0.902-1.028,1.579c-2.735,2.941-7.25,6.282-11.366,6.282L55.002,158.993z"/>
	<path class="st0" d="M85.932,199.386c-0.67,0-1.166-0.62-1.116-3.736c0.05-3.063,0.685-8.475,1.485-14.168
		c1.018-7.243,2.303-14.946,2.994-18.865l0.031-0.177c-0.33-0.265-0.654-0.54-0.964-0.862c-0.473-0.494-0.641-0.899-0.602-1.17
		c0.061-0.434,0.645-0.525,1.351-0.088c0.179,0.112,0.36,0.196,0.545,0.27c0.341-1.892,0.996-5.495,1.688-8.727
		c-5.042,7.271-12.454,6.843-14.007,7.051c-0.88,0.542-1.929,0.959-2.688,0.959c-0.664,0-1.138-0.318-1.021-1.146
		c0.133-0.943,1.213-1.989,3.674-1.989c1.917-1.552,2.816-3.173,2.996-4.45c0.2-1.422-0.493-2.418-1.667-2.418
		c-5.008,0-8.326,13.853-10.029,25.974c-0.828,5.894-1.274,11.379-1.347,14.662c-0.056,2.342,0.025,2.472,0.397,3.83
		c0.115,0.419,0.15,0.873,0.091,1.294c-0.121,0.863-0.638,1.585-1.672,1.562c-0.544-0.013-1.106-0.357-1.451-1.289
		c-1.287-3.49-1.646-24.727,0.606-40.754c0.694-4.938,1.636-9.38,2.875-12.658c0.274-0.725,1.297-1.323,2.099-1.323
		c0.742,0,1.292,0.515,0.875,1.92c-1.256,4.24-2.248,9.397-3.005,14.789c-0.858,6.108-1.417,12.518-1.721,18.235
		c-0.068,1.274-0.041,1.969,0.044,1.969c0.062,0,0.155-0.372,0.266-1.161c0.208-1.476,0.368-3.064,0.6-4.71
		c1.562-11.11,4.83-24.822,11.714-24.822c2.833,0,4.039,2.186,3.689,4.67c-0.235,1.674-1.175,3.482-2.797,4.85
		c6.213-0.47,10.76-4.948,13.02-10.91c0.55-1.459,1.202-2.398,2.086-2.398c1.005,0,1.186,0.633,1.046,1.623
		c-0.095,0.672-0.335,1.507-0.567,2.42c-1.303,5.152-2.231,8.863-3.321,14.071c0.33,0.104,0.66,0.188,0.992,0.252
		c1.481-4.2,3.765-10.042,8.077-10.042c2.247,0,3.156,1.822,2.843,4.05c-0.472,3.358-3.724,7.639-9.368,7.978
		c-3.621,10.015-5.516,19.878-6.381,26.033c-0.358,2.542-0.54,4.452-0.594,5.48c-0.034,0.619,0.019,1.449-0.085,2.185
		c-0.133,0.943-0.521,1.733-1.673,1.733L85.932,199.386z M90.701,169.485c0.486-1.488,1.076-3.504,1.783-5.652
		c-0.254-0.044-0.507-0.099-0.758-0.165C91.311,165.757,90.954,167.739,90.701,169.485L90.701,169.485z M95.393,162.013
		c3.819-0.602,5.936-3.723,6.223-5.761c0.146-1.038-0.183-1.795-1.004-1.795C98.403,154.457,96.25,159.824,95.393,162.013
		L95.393,162.013z"/>
	<path class="st0" d="M108.957,205.802c-3.014,0-5.769-3.047-4.919-9.096c0.862-6.132,5.428-15.347,17.184-27.599
		c0.69-7.108,1.083-14.041,1.528-19.743c0.139-1.795,0.273-2.553,0.23-2.553c-0.048,0-0.321,0.96-1.069,2.475
		c-1.126,2.308-5.011,8.508-7.969,8.583c-3.013,0.084-3.05-4.312-3.185-7.466c-0.051-1.21-0.389-2.539-0.247-3.553
		c0.103-0.73,0.455-1.298,1.345-1.54c0.145-0.039,0.292-0.06,0.439-0.06c0.591,0,1.16,0.325,1.432,1.027
		c0.487,1.24-0.703,8.721,0.938,8.662c1.592-0.036,6.67-8.526,7.885-10.688c1.155-2.016,1.975-3.025,2.521-3.025
		c0.596,0,0.867,1.205,0.892,3.618c0.053,6.206-0.103,13.146-0.643,20.145c4.334-4.249,8.422-8.084,11.394-11.763
		c1.293-1.602,2.139-2.19,2.56-2.19c0.248,0,0.352,0.191,0.303,0.536c-0.075,0.533-0.514,1.431-1.348,2.541
		c-3.19,4.258-8.124,9.095-13.207,14.366c-0.169,1.754-0.411,3.896-0.743,6.256c-1.753,12.47-6.014,31.068-15.32,31.068
		L108.957,205.802z M109.148,203.959c6.464,0,9.743-16.86,11.113-26.613c0.245-1.736,0.429-3.248,0.559-4.399
		c-10.393,11.47-14.071,19.262-14.761,24.167c-0.677,4.813,1.526,6.847,3.09,6.847L109.148,203.959z"/>
	<path class="st0" d="M160.305,163.295c-2.782,0-1.74-12.137-0.896-16.456c0.397-2.032,2.175-3.358,2.968-3.358
		c0.756,0,0.777,0.638,0.679,1.332c-0.078,0.553-0.342,2.083-0.649,4.266c-0.214,1.526-0.449,3.372-0.655,5.427
		c-0.212,2.125-0.24,3.147,0.035,3.147c0.287,0,0.904-1.113,1.984-3.249c1.03-2.033,3.001-5.65,5.194-5.65
		c2.528,0,2.079,4.409,1.936,6.509c-0.086,1.263-0.086,2.11,0.288,2.11c0.39,0,1.189-0.928,2.724-3.281
		c1.25-1.92,2.295-2.508,3.172-2.508c2.392,0,2.865,5.24,6.44,5.24c1.743,0,4.03-1.119,6.051-2.584
		c2.434-1.766,3.488-3.279,4.483-3.279c0.965,0-0.369,2.091-3.795,4.677c-2.554,1.928-5.222,3.273-7.539,3.273
		c-2.394,0-3.546-1.351-4.338-2.562c-0.644-0.987-1.054-1.867-1.656-1.867c-0.509,0-1.155,0.628-2.198,2.349
		c-1.791,2.954-3.183,4.05-4.162,4.05c-3.184,0-0.588-8.328-2.252-8.328c-1.787,0-5.493,10.739-7.814,10.739L160.305,163.295z"/>
	<path class="st0" d="M195.589,165.825c-3.222,0-5.207-2.815-4.44-8.27c0.168-1.189,0.962-6.125,2.5-6.654
		c0.222-0.076,0.418-0.112,0.588-0.112c1.123,0,1.169,1.55,0.954,3.086c-0.173,1.23-0.515,2.452-0.605,2.86
		c-0.143,0.641-0.252,1.231-0.33,1.775c-0.469,3.342,0.292,4.887,1.936,4.887c3.588,0,9.667-6.654,12.136-9.8
		c0.958-1.222,1.645-2.088,2.079-2.088c0.256,0,0.349,0.166,0.308,0.46c-0.073,0.521-0.565,1.441-1.301,2.551
		c-2.607,3.924-8.968,11.307-13.824,11.307L195.589,165.825z M195.999,144.664c-0.601,0-1.076-0.572-0.95-1.464
		c0.067-0.479,0.309-1.051,0.798-1.676c0.391-0.499,0.824-0.739,1.185-0.739c0.528,0,0.901,0.512,0.768,1.467
		c-0.242,1.721-1.138,2.412-1.798,2.412H195.999z"/>
	<path class="st0" d="M210.372,160.921c-0.997,0-1.598-0.441-1.565-1.838c0.026-1.105,0.696-8.037,0.696-8.037
		c0.04-1.581-0.417-1.697,0.027-3.106c0.199-0.641,0.82-1.289,1.601-1.289c1.414,0,1.391,2.513,1.244,4.108
		c-0.124,1.35-0.364,3.529-0.413,3.993c-0.183,1.759-0.18,2.55,0.1,2.55c0.341,0,1.093-1.176,2.421-3.211
		c1.207-1.853,2.217-2.501,3.068-2.501c1,0,1.777,0.895,2.39,1.787c1.415,2.059,2.778,3.404,4.737,3.404
		c1.968,0,4.537-1.358,8.364-4.72c0.847-0.738,1.388-1.027,1.678-1.027c0.213,0,0.291,0.156,0.256,0.405
		c-0.057,0.407-0.417,1.062-0.984,1.687c-1.119,1.233-2.392,2.365-3.727,3.297c-2.242,1.566-4.535,2.542-6.588,2.542
		c-1.777,0-3.374-0.731-4.603-2.443c-0.924-1.292-1.458-1.965-1.97-1.965c-0.46,0-0.902,0.542-1.597,1.666
		c-0.992,1.608-2.772,4.433-4.571,4.656c-0.201,0.025-0.391,0.039-0.568,0.039L210.372,160.921z"/>
	<path class="st0" d="M250.205,176.792c-0.699,0.652-3.17-0.371-3.983-4.666c-1.104-5.853-0.923-13.633,0.068-21.916
		c-2.252,3.528-6.594,9.679-10.557,9.679c-2.648,0-3.738-2.661-3.323-5.622c0.458-3.255,2.733-6.874,6.758-7.723
		c0.34-0.072,0.669-0.108,0.981-0.108c1.422,0,2.476,0.748,2.476,2.256c0,0.089-0.006,0.174-0.018,0.255
		c-0.112,0.791-0.735,1.233-1.298,1.233c-0.868,0-0.441-1.115-1.674-1.115c-2.273,0-3.912,2.99-4.25,5.399
		c-0.228,1.625,0.135,2.985,1.294,2.985c3.104,0,8.727-9.696,10.342-12.576c2.064-13.235,5.885-26.97,9.658-35.713
		c2.709-6.278,5.342-9.416,6.88-9.416c1.146,0,1.686,1.74,1.196,5.218c-0.188,1.335-0.526,2.927-1.041,4.774
		c-2.372,8.524-7.394,22.37-13.715,34.103c-1.56,10.006-2.121,19.542-0.669,26.691c0.761,3.762,1.948,5.259,0.871,6.263
		L250.205,176.792z M251.276,136.622c4.403-9.266,8.151-19.376,10.425-27.169c0.676-2.286,1.076-4.012,1.238-5.165
		c0.16-1.148,0.085-1.728-0.191-1.728c-0.531,0-1.807,2.15-3.57,6.542c-2.509,6.248-5.653,16.094-7.904,27.521L251.276,136.622z"/>
	<path class="st0" d="M293.132,158.993c-3.3,0-5.367-2.013-5.971-3.831c-0.188-0.566-0.134-0.855-0.866-0.294
		c-1.428,1.096-3.826,2.675-5.527,2.675c-0.447,0-0.847-0.109-1.168-0.364c-0.621-0.494-0.799-1.371-0.648-2.437
		c0.521-3.716,5.033-9.722,8.676-9.722c1.617,0,2.134,0.962,2.005,1.869c-0.141,1.007-1.073,1.945-2.172,1.426
		c-1.912-0.895-6.773,5.641-5.803,6.618c1.056,1.061,4.859-2.798,5.691-3.38c0.304-0.213,0.624-0.3,0.924-0.3
		c0.727,0,1.331,0.515,1.287,0.993c-0.026,0.297-0.155,0.567-0.261,0.854c-0.47,1.29,0.947,3.833,4.31,3.833
		c4.332,0,8.74-4.041,10.173-5.218c0.756-0.619,1.263-0.878,1.528-0.878c0.171,0,0.242,0.107,0.215,0.295
		c-0.046,0.328-0.392,0.902-1.028,1.579c-2.735,2.941-7.25,6.282-11.365,6.282L293.132,158.993z"/>
	<path class="st0" d="M304.925,160.921c-0.997,0-1.598-0.441-1.565-1.838c0.027-1.105,0.696-8.037,0.696-8.037
		c0.04-1.581-0.417-1.697,0.027-3.106c0.199-0.641,0.819-1.289,1.602-1.289c1.413,0,1.39,2.513,1.243,4.108
		c-0.123,1.35-0.364,3.529-0.413,3.993c-0.183,1.759-0.18,2.55,0.1,2.55c0.342,0,1.094-1.176,2.422-3.211
		c1.206-1.853,2.217-2.501,3.068-2.501c0.999,0,1.777,0.895,2.39,1.787c1.415,2.059,2.778,3.404,4.737,3.404
		c1.968,0,4.537-1.358,8.363-4.72c0.847-0.738,1.389-1.027,1.679-1.027c0.213,0,0.291,0.156,0.256,0.405
		c-0.057,0.407-0.417,1.062-0.984,1.687c-1.119,1.233-2.392,2.365-3.727,3.297c-2.241,1.566-4.534,2.542-6.587,2.542
		c-1.777,0-3.374-0.731-4.603-2.443c-0.925-1.292-1.458-1.965-1.971-1.965c-0.46,0-0.902,0.542-1.597,1.666
		c-0.992,1.608-2.772,4.433-4.57,4.656c-0.202,0.025-0.392,0.039-0.568,0.039L304.925,160.921z"/>
	<path class="st0" d="M344.758,176.792c-0.698,0.652-3.17-0.371-3.982-4.666c-1.104-5.853-0.924-13.633,0.067-21.916
		c-2.252,3.528-6.594,9.679-10.557,9.679c-2.648,0-3.738-2.661-3.322-5.622c0.457-3.255,2.732-6.874,6.758-7.723
		c0.34-0.072,0.669-0.108,0.981-0.108c1.422,0,2.476,0.748,2.476,2.256c0,0.089-0.006,0.174-0.018,0.255
		c-0.111,0.791-0.734,1.233-1.298,1.233c-0.868,0-0.441-1.115-1.674-1.115c-2.273,0-3.911,2.99-4.25,5.399
		c-0.229,1.625,0.135,2.985,1.293,2.985c3.105,0,8.728-9.696,10.343-12.576c2.063-13.235,5.886-26.97,9.657-35.713
		c2.709-6.278,5.342-9.416,6.881-9.416c1.146,0,1.685,1.74,1.195,5.218c-0.188,1.335-0.526,2.927-1.041,4.774
		c-2.372,8.524-7.394,22.37-13.715,34.103c-1.56,10.006-2.12,19.542-0.668,26.691c0.76,3.762,1.948,5.259,0.871,6.263
		L344.758,176.792z M345.829,136.622c4.403-9.266,8.152-19.376,10.425-27.169c0.676-2.286,1.076-4.012,1.238-5.165
		c0.161-1.148,0.085-1.728-0.19-1.728c-0.531,0-1.807,2.15-3.571,6.542c-2.508,6.248-5.652,16.094-7.903,27.521L345.829,136.622z"/>
	<path class="st0" d="M377.57,186.549c-0.721,0.854-2.781-0.956-3.471-6.521c-1.224-9.868-0.619-22.189,1.056-34.107
		c2.168-15.429,6.131-30.183,10.248-38.064c1.97-3.773,4.165-5.95,5.704-5.95c1.566,0,2.444,2.257,1.724,7.389
		c-1.431,10.176-8.215,28.669-15.295,40.62c-1.513,12.291-1.486,22.28-0.653,28.511c0.505,3.79,1.309,5.801,1.122,7.126
		C377.951,185.932,377.816,186.255,377.57,186.549L377.57,186.549z M378.161,145.304c5.943-11.865,11.048-27.572,12.53-35.604
		c0.092-0.498,0.168-0.958,0.227-1.38c0.377-2.671,0.125-3.878-0.48-3.878c-0.688,0-1.832,1.554-3.035,4.281
		C384.153,116.091,380.18,131.713,378.161,145.304L378.161,145.304z"/>
	<path class="st0" d="M391.216,165.825c-3.223,0-5.207-2.815-4.44-8.27c0.167-1.189,0.962-6.125,2.499-6.654
		c0.223-0.076,0.418-0.112,0.588-0.112c1.123,0,1.169,1.55,0.954,3.086c-0.174,1.23-0.515,2.452-0.605,2.86
		c-0.144,0.641-0.253,1.231-0.33,1.775c-0.469,3.342,0.292,4.887,1.936,4.887c3.588,0,9.667-6.654,12.136-9.8
		c0.959-1.222,1.645-2.088,2.079-2.088c0.256,0,0.348,0.166,0.308,0.46c-0.074,0.521-0.565,1.441-1.302,2.551
		c-2.607,3.924-8.968,11.307-13.824,11.307L391.216,165.825z M391.625,144.664c-0.601,0-1.075-0.572-0.95-1.464
		c0.068-0.479,0.309-1.051,0.798-1.676c0.392-0.499,0.825-0.739,1.186-0.739c0.527,0,0.901,0.512,0.768,1.467
		c-0.242,1.721-1.138,2.412-1.798,2.412H391.625z"/>
	<path class="st0" d="M404.565,195.939c-5.984,0-1.661-29.946,0.312-43.901c-0.515-0.375-0.98-0.631-1.469-1.146
		c-0.29-0.306-0.434-0.713-0.381-1.088c0.05-0.353,0.273-0.678,0.713-0.861c0.253-0.106,0.857-0.269,1.653-0.456
		c1.535-10.256,3.303-19.584,4.511-24.288c0.533-2.08,2.468-7.971,4.171-7.971c0.804,0,0.9,1.117,0.699,2.549
		c-0.307,2.179-1.3,5.09-1.54,5.919c-1.503,5.181-3.257,13.842-4.812,23.151c2.782-0.541,6.004-1.055,7.432-1.055
		c1.287,0,1.821,0.268,1.776,0.591c-0.042,0.302-0.586,0.652-1.493,0.884c-4.309,1.101-6.769,1.588-8.099,1.902
		c-0.111,0.69-0.222,1.381-0.33,2.073c5.021,6.881,5.677,17.391,4.413,26.379c-1.337,9.511-4.821,17.317-7.553,17.317
		L404.565,195.939z M404.828,193.301c1.429,0,3.91-6.832,5.072-15.104c1.138-8.091,1.012-17.558-2.596-23.35
		c-0.104,0.682-0.399,2.645-0.779,5.344c-1.508,10.73-4.343,33.109-1.699,33.109H404.828z"/>
	<path class="st0" d="M427.908,161.842c-4.887,0-8.172-3.333-7.422-8.67c0.685-4.874,4.677-8.115,7.35-8.115
		c0.843,0,1.555,0.323,1.99,1.019c0.29,0.463,0.396,1.065,0.304,1.726c-0.279,1.985-2.363,4.502-6.679,5.391
		c-0.451,4.622,1.816,6.633,5.106,6.633c3.199,0,7.591-1.993,12.529-6.856c1.276-1.256,1.981-1.811,2.376-1.811
		c0.198,0,0.269,0.129,0.238,0.347c-0.07,0.502-0.685,1.478-1.52,2.425c-4.887,5.537-10.146,7.915-14.272,7.915L427.908,161.842z
		 M423.979,151.001c2.192-0.163,3.604-1.77,3.755-2.841c0.077-0.55-0.179-0.958-0.831-0.958
		C425.834,147.202,424.595,148.953,423.979,151.001L423.979,151.001z"/>
	<path class="st0" d="M448.632,162.679c-1.017,0-1.594-0.771-1.445-1.82c0.049-0.349,0.177-0.715,0.392-1.062
		c0.513-0.835,1.466-1.412,2.23-1.412c1.13,0,1.553,1.098,1.415,2.072C451.069,161.561,450.17,162.678,448.632,162.679
		L448.632,162.679z"/>
</g>
</svg>
